<?xml version="1.0" encoding="utf-8" ?>
<svg xmlns="http://www.w3.org/2000/svg" xmlns:xlink="http://www.w3.org/1999/xlink" width="2042" height="2042">
	<path fill="#B83C3C" transform="matrix(3.98828 0 0 3.98828 -3.05176e-05 0)" d="M96.598 112.172C96.6079 91.8773 96.871 83.2145 120.688 83.2495L335.515 83.2587C359.418 83.257 360.491 92.99 360.49 112.165L360.474 336.403C360.474 359.075 360.709 381.775 360.478 404.445C360.284 423.454 349.145 426.068 332.766 426.078L125.311 426.077C117.704 426.083 106.451 428.158 100.71 421.952C94.242 414.96 97.8677 398.702 96.0616 397.879C81.1861 396.915 69.8646 383.972 70.7584 369.13C71.3831 358.757 75.9657 353.817 83.3121 347.239C65.2369 335.269 67.7418 314.145 83.3121 301.039C67.0008 287.303 66.817 269.974 82.0427 255.553C65.8454 243.336 67.7645 220.466 83.3121 208.86C65.8304 197.109 67.6322 175.642 83.3121 162.997L81.9451 161.82C62.1074 144.686 71.6925 113.783 96.598 112.172ZM96.598 354.738L122.217 354.738C130.431 352.635 130.242 342.956 122.515 340.664C122.401 337.481 121.971 309.983 122.515 308.044C131.288 306.002 129.533 296.805 122.515 293.759L122.515 262.253C130.275 260.457 129.573 250.614 122.515 248.537C122.732 244.975 122.533 241.274 122.53 237.7L122.515 215.7C129.672 212.783 128.879 204.545 122.515 201.491C122.153 198.339 122.495 194.85 122.498 191.655L122.515 169.965C129.111 166.571 129.833 158.202 122.515 155.663C113.986 155.089 105.159 155.742 96.598 155.663C96.5514 151.2 97.1964 125.473 96.0616 123.556L96.1717 123.454C97.0612 121.051 96.6067 114.896 96.598 112.172C71.6925 113.783 62.1074 144.686 81.9451 161.82L83.3121 162.997C67.6322 175.642 65.8304 197.109 83.3121 208.86C67.7645 220.466 65.8454 243.336 82.0427 255.553C66.817 269.974 67.0008 287.303 83.3121 301.039C67.7418 314.145 65.2369 335.269 83.3121 347.239C75.9657 353.817 71.3831 358.757 70.7584 369.13C69.8646 383.972 81.1861 396.915 96.0616 397.879L96.2731 397.738C96.9503 396.421 96.5884 388.368 96.598 386.503C97.2414 378.401 97.0664 362.857 96.598 354.738Z"/>
	<path fill="#4E4E4E" transform="matrix(3.98828 0 0 3.98828 -3.05176e-05 0)" d="M96.598 112.172C96.6079 91.8773 96.871 83.2145 120.688 83.2495L335.515 83.2587C359.418 83.257 360.491 92.99 360.49 112.165L360.474 336.403C360.474 359.075 360.709 381.775 360.478 404.445C360.284 423.454 349.145 426.068 332.766 426.078L125.311 426.077C117.704 426.083 106.451 428.158 100.71 421.952C94.242 414.96 97.8677 398.702 96.0616 397.879L96.2731 397.738C96.9503 396.421 96.5884 388.368 96.598 386.503C97.2414 378.401 97.0664 362.857 96.598 354.738L122.217 354.738C123.049 368.337 123.266 388.243 122.515 402.009L142.48 401.994C145.808 401.98 149.452 401.627 152.737 402.009L337.245 402.009L337.245 106.562L152.737 106.562L122.515 106.562C123.639 120.513 123.122 141.814 122.515 155.663C113.986 155.089 105.159 155.742 96.598 155.663C96.5514 151.2 97.1964 125.473 96.0616 123.556L96.1717 123.454C97.0612 121.051 96.6067 114.896 96.598 112.172Z"/>
	<path fill="#3A4E68" transform="matrix(3.98828 0 0 3.98828 -3.05176e-05 0)" d="M83.3121 162.997L81.9451 161.82C62.1074 144.686 71.6925 113.783 96.598 112.172C96.6067 114.896 97.0612 121.051 96.1717 123.454L96.0616 123.556C76.7745 128.771 79.6215 154.458 96.598 155.663C105.159 155.742 113.986 155.089 122.515 155.663C129.833 158.202 129.111 166.571 122.515 169.965L122.498 191.655C122.495 194.85 122.153 198.339 122.515 201.491C128.879 204.545 129.672 212.783 122.515 215.7L122.53 237.7C122.533 241.274 122.732 244.975 122.515 248.537C129.573 250.614 130.275 260.457 122.515 262.253L122.515 293.759C129.533 296.805 131.288 306.002 122.515 308.044C121.971 309.983 122.401 337.481 122.515 340.664C130.242 342.956 130.431 352.635 122.217 354.738L96.598 354.738C80.0034 355.382 76.0789 383.457 96.598 386.503C96.5884 388.368 96.9503 396.421 96.2731 397.738L96.0616 397.879C81.1861 396.915 69.8646 383.972 70.7584 369.13C71.3831 358.757 75.9657 353.817 83.3121 347.239C65.2369 335.269 67.7418 314.145 83.3121 301.039C67.0008 287.303 66.817 269.974 82.0427 255.553C65.8454 243.336 67.7645 220.466 83.3121 208.86C65.8304 197.109 67.6322 175.642 83.3121 162.997ZM96.598 248.537L96.606 223.168C96.6229 221.228 97.6534 217.278 96.598 215.7C76.0779 220.95 79.2967 248.851 96.598 248.537ZM96.598 308.044C78.6683 309.822 76.9832 337.411 96.598 340.664L96.598 308.044ZM96.598 169.965C78.3216 173.514 77.4075 199.25 96.598 201.491C96.1359 194.002 95.898 177.456 96.598 169.965ZM96.598 262.253C78.251 263.738 78.7114 291.535 96.598 293.759L96.598 262.253Z"/>
	<path fill="#4E4E4E" transform="matrix(3.98828 0 0 3.98828 -3.05176e-05 0)" d="M122.515 215.7L122.53 237.7C122.533 241.274 122.732 244.975 122.515 248.537C113.878 248.435 105.236 248.547 96.598 248.537L96.606 223.168C96.6229 221.228 97.6534 217.278 96.598 215.7C104.291 215.023 114.559 215.768 122.515 215.7Z"/>
	<path fill="#4E4E4E" transform="matrix(3.98828 0 0 3.98828 -3.05176e-05 0)" d="M96.598 308.044C105.213 307.638 113.901 308.439 122.515 308.044C121.971 309.983 122.401 337.481 122.515 340.664C113.883 340.794 105.232 340.661 96.598 340.664L96.598 308.044Z"/>
	<path fill="#4E4E4E" transform="matrix(3.98828 0 0 3.98828 -3.05176e-05 0)" d="M96.598 262.253C105.216 262.299 113.903 262.475 122.515 262.253L122.515 293.759C119.748 294.074 116.757 293.798 113.963 293.788L96.598 293.759L96.598 262.253Z"/>
	<path fill="#4E4E4E" transform="matrix(3.98828 0 0 3.98828 -3.05176e-05 0)" d="M96.598 169.965C105.189 170.279 113.912 169.957 122.515 169.965L122.498 191.655C122.495 194.85 122.153 198.339 122.515 201.491C114.642 201.071 104.479 201.232 96.598 201.491C96.1359 194.002 95.898 177.456 96.598 169.965Z"/>
	<path fill="#8A5353" transform="matrix(3.98828 0 0 3.98828 -3.05176e-05 0)" d="M122.515 106.562L152.737 106.562L152.737 402.009C149.452 401.627 145.808 401.98 142.48 401.994L122.515 402.009C123.266 388.243 123.049 368.337 122.217 354.738C130.431 352.635 130.242 342.956 122.515 340.664C122.401 337.481 121.971 309.983 122.515 308.044C131.288 306.002 129.533 296.805 122.515 293.759L122.515 262.253C130.275 260.457 129.573 250.614 122.515 248.537C122.732 244.975 122.533 241.274 122.53 237.7L122.515 215.7C129.672 212.783 128.879 204.545 122.515 201.491C122.153 198.339 122.495 194.85 122.498 191.655L122.515 169.965C129.111 166.571 129.833 158.202 122.515 155.663C123.122 141.814 123.639 120.513 122.515 106.562Z"/>
	<path fill="#FEFEFE" transform="matrix(3.98828 0 0 3.98828 -3.05176e-05 0)" d="M184.643 135.303C193.974 135.11 203.339 135.315 212.672 135.341L280.858 135.295C287.41 135.292 294.2 135.095 300.719 135.856C312.422 137.221 309.689 152.161 309.693 160.375C309.698 170.681 312.69 183.475 298.857 185.207C289.527 184.998 280.143 185.202 270.807 185.202L214.602 185.204C208.683 185.202 202.758 185.144 196.84 185.245C169.439 185.713 173.719 181.038 173.77 157.346C173.791 147.725 171.546 136.542 184.643 135.303Z"/>
	<path fill="#3A4E68" transform="matrix(3.98828 0 0 3.98828 -3.05176e-05 0)" d="M183.018 321.691L298.857 321.691L298.857 333.482C298.266 333.774 193.858 333.481 183.018 333.482L183.018 321.691Z"/>
	<path fill="#3A4E68" transform="matrix(3.98828 0 0 3.98828 -3.05176e-05 0)" d="M183.018 282.027L298.857 282.027L298.857 293.759L183.018 293.759L183.018 282.027Z"/>
	<path fill="#8A5353" transform="matrix(3.98828 0 0 3.98828 -3.05176e-05 0)" d="M391.489 131.362C391.977 134.596 391.449 138.209 391.489 141.504L410.073 141.504L422.995 141.504L441.242 141.504L441.23 360.738C441.233 363.639 441.828 371.442 441.242 373.673C435.164 373.564 429.074 373.634 422.995 373.673C418.71 373.837 414.361 373.76 410.073 373.673L391.489 373.673C391.701 370.85 391.544 368.034 391.516 365.207L391.5 151.275C391.495 144.636 391.294 138 391.489 131.362Z"/>
	<path fill="#8A5353" transform="matrix(3.98828 0 0 3.98828 -3.05176e-05 0)" d="M441.242 141.504L441.23 360.738C441.233 363.639 441.828 371.442 441.242 373.673C435.164 373.564 429.074 373.634 422.995 373.673L422.995 141.504L441.242 141.504Z"/>
	<path fill="#FEFEFE" transform="matrix(3.98828 0 0 3.98828 -3.05176e-05 0)" d="M410.073 141.504L422.995 141.504L422.995 373.673C418.71 373.837 414.361 373.76 410.073 373.673L410.073 141.504Z"/>
	<path fill="#F8BA85" transform="matrix(3.98828 0 0 3.98828 -3.05176e-05 0)" d="M391.489 120.967C391.533 109.502 389.227 99.628 398.221 90.6896C408.164 80.8082 424.263 80.8758 433.995 90.9656C442.339 99.6158 441.33 109.879 441.242 120.967L441.242 141.504L422.995 141.504L410.073 141.504L391.489 141.504C391.449 138.209 391.977 134.596 391.489 131.362L391.489 120.967Z"/>
	<path fill="#4E4E4E" transform="matrix(3.98828 0 0 3.98828 -3.05176e-05 0)" d="M391.489 120.967L441.242 120.967L441.242 141.504L422.995 141.504L410.073 141.504L391.489 141.504C391.449 138.209 391.977 134.596 391.489 131.362L391.489 120.967Z"/>
	<path fill="#F8BA85" transform="matrix(3.98828 0 0 3.98828 -3.05176e-05 0)" d="M422.995 373.673C429.074 373.634 435.164 373.564 441.242 373.673C435.496 383.957 431.637 395.224 425.818 405.536C422.877 411.739 419.846 417.853 416.567 423.886C413.258 417.876 410.091 411.734 407.148 405.536C401.625 395.098 396.93 384.183 391.489 373.673L410.073 373.673C414.361 373.76 418.71 373.837 422.995 373.673Z"/>
	<path fill="#3A4E68" transform="matrix(3.98828 0 0 3.98828 -3.05176e-05 0)" d="M407.148 405.536L425.818 405.536C422.877 411.739 419.846 417.853 416.567 423.886C413.258 417.876 410.091 411.734 407.148 405.536Z"/>
</svg>
