<?xml version="1.0" encoding="utf-8" ?>
<svg xmlns="http://www.w3.org/2000/svg" xmlns:xlink="http://www.w3.org/1999/xlink" width="2042" height="2042">
	<path fill="#76CFD4" transform="matrix(1.99414 0 0 1.99414 -3.05176e-05 -0.00012207)" d="M0 0L1024 0L1024 1024L0 1024L0 0Z"/>
	<path fill="#FEFEFD" transform="matrix(1.99414 0 0 1.99414 -3.05176e-05 -0.00012207)" d="M437.85 163.227L436.363 162.776C436.385 159.973 440.526 156.639 442.439 154.76C457.011 140.443 470.877 132.002 491.941 132.292C502.952 132.443 513.88 135.484 523.725 140.343C539.337 148.048 554.167 158.201 569.264 166.927L690.874 238.556L803.336 304.224C815.939 311.724 838.341 322.677 847.838 332.576C865.21 350.685 864.79 368.337 864.02 392.042C863.738 400.719 860.856 408.477 857.906 416.535C858.078 416.672 858.247 416.811 858.42 416.945C863.489 420.872 869.611 423.492 875.032 426.911C888.422 435.533 897.406 449.548 899.65 465.315C900.456 471.233 900.377 477.31 900.425 483.275C900.543 498.12 900.495 511.457 890.998 523.745C887.868 527.795 884.243 531.504 880.556 535.048C888.826 546.223 892.624 558.778 890.461 572.711C889.144 581.188 885.497 589.312 880.411 596.193C869.053 611.556 855.908 625.668 843.683 640.335L751.388 749.709L652.219 868.374L615.215 913.193C606.872 923.126 598.596 934.83 587.983 942.454C574.608 952.062 557.591 954.864 541.505 952.075C534.829 950.917 528.452 948.35 522.527 945.11C516.073 941.582 509.951 937.336 503.697 933.462L467.463 911.297L353.169 842.447L202.006 752.122C185.497 742.106 168.366 732.919 152.185 722.384C146.246 718.517 140.663 714.486 136.545 708.63C129.571 698.714 126.658 685.764 128.904 673.844C131.153 661.912 138.367 651.081 148.118 643.955C146.719 642.128 144.719 640.482 143.162 638.75C138.727 633.816 134.703 628.617 131.632 622.715C127.867 615.481 125.565 607.335 124.456 599.275C122.969 588.476 124.085 577.061 124.159 566.16C124.24 554.111 123.487 541.421 124.684 529.435C125.214 524.399 126.27 519.432 127.834 514.615C133.904 495.97 147.008 487.566 163.655 479.131C163.469 479.064 163.28 479.004 163.097 478.929C161.127 478.118 158.772 476.545 158.113 474.388C157.605 472.727 157.868 471.246 158.704 469.763C161.936 464.032 170.598 460.161 176.631 458.28L175.603 456.821C173.704 457.789 171.551 458.49 169.568 459.292C174.911 452.814 192.54 436.636 195.207 431.494C195.845 430.263 195.345 428.642 195.608 427.326C195.901 425.855 197.29 424.925 198.395 424.043C204.522 419.836 210.547 416.485 217.625 414.206L215.544 413.189C211.691 413.936 208.833 415.741 205.583 417.816C213.663 408.713 221.545 399.13 230.477 390.852C230.288 390.349 230.139 390.012 230.047 389.461C229.788 387.912 230.693 386.744 231.477 385.514C233.757 383.398 236.113 381.366 238.54 379.421C241.807 373.27 259.345 355.703 265.176 350.162C264.821 349.446 264.454 348.731 264.216 347.965C263.864 346.832 264.155 345.97 264.703 344.957C268.134 338.617 280.199 334.685 286.633 332.736L286.562 331.752C282.561 331.797 277.238 334.514 273.46 335.928C278.625 330.112 298.613 311.483 300.932 306.715C300.516 305.665 300.384 304.644 300.782 303.553C302.736 298.2 311.834 294.323 316.645 292.128L315.583 291.081C313.428 291.755 311.464 292.923 309.474 293.974C317.766 284.949 325.842 275.142 335.011 267.016L334.981 266.387C334.837 266.129 334.673 265.882 334.548 265.614C334.041 264.53 334.245 263.487 334.728 262.448C337.2 257.135 344.264 253.522 349.486 251.615L349.044 250.482C348.569 250.525 348.051 250.439 347.575 250.401C347.677 248.789 369.094 226.972 372.046 224.239C371.852 223.331 371.631 222.433 371.801 221.497C372.41 218.125 376.66 215.057 379.12 212.907C381.156 209.297 384.944 205.986 387.791 202.945C393.742 195.629 400.45 187.497 407.805 181.584C409.284 180.395 409.897 180.25 411.776 180.452C411.601 179.86 411.354 179.163 411.29 178.538C411.136 177.013 412.047 175.746 412.939 174.595C418.236 167.76 427.873 164.541 436.135 163.568L437.85 163.227Z"/>
	<path fill="#838BCF" transform="matrix(1.99414 0 0 1.99414 -3.05176e-05 -0.00012207)" d="M466.547 163.741C476.234 155.667 488.714 151.739 501.278 152.811C506.959 153.316 512.205 155.047 517.274 157.627C532.887 165.573 548.103 175.258 563.213 184.13L651.496 236.322L739.335 287.789C751.392 294.861 763.926 301.348 775.708 308.847C758.377 330.899 739.336 351.653 720.762 372.655C716.733 377.21 702.087 392.288 699.829 396.789C698.297 395.369 696.582 394.262 694.854 393.099C690.972 396.393 662.92 426.903 660.912 430.958L660.658 430.998C657.091 435.903 652.902 440.505 648.858 445.019L648.598 445.058C636.788 456.968 627.504 471.473 615.624 483.278L621.774 487.277C609.325 500.591 597.631 514.487 585.624 528.188C561.344 555.842 537.235 583.645 513.297 611.596C502.165 624.431 490.94 637.186 479.625 649.86C474.15 656.091 468.111 662.287 463.237 668.992C449.685 661.867 436.99 652.711 423.88 644.801C396.638 628.366 369.274 612.27 342.242 595.475C330.362 588.095 318.18 581.227 306.198 574.019L215.354 518.515C221.882 511.584 238.627 491.057 245.329 486.939C246.023 486.935 246.567 486.769 247.205 486.472C249.776 485.277 251.2 481.902 252.238 479.492C253.555 477.182 255.227 475.121 256.461 472.752C257.066 472.244 256.815 472.522 257.29 471.833C262.06 464.922 277.843 447.175 284.532 442.751C285.468 442.613 286.254 442.491 287.069 441.957C289.003 440.691 289.367 438.407 289.878 436.325C291.934 435.536 293.495 431.848 294.543 429.89C293.49 428.599 292.332 427.431 291.08 426.332C283.629 419.793 265.895 411.521 255.884 412.138C252.241 414.473 244.913 412.295 240.46 413.059C234.498 412.959 222.966 411.917 217.625 414.206L215.544 413.189C211.691 413.936 208.833 415.741 205.583 417.816C213.663 408.713 221.545 399.13 230.477 390.852C230.288 390.349 230.139 390.012 230.047 389.461C229.788 387.912 230.693 386.744 231.477 385.514C233.757 383.398 236.113 381.366 238.54 379.421C241.807 373.27 259.345 355.703 265.176 350.162C264.821 349.446 264.454 348.731 264.216 347.965C263.864 346.832 264.155 345.97 264.703 344.957C268.134 338.617 280.199 334.685 286.633 332.736L286.562 331.752C282.561 331.797 277.238 334.514 273.46 335.928C278.625 330.112 298.613 311.483 300.932 306.715C300.516 305.665 300.384 304.644 300.782 303.553C302.736 298.2 311.834 294.323 316.645 292.128L315.583 291.081C313.428 291.755 311.464 292.923 309.474 293.974C317.766 284.949 325.842 275.142 335.011 267.016L334.981 266.387C334.837 266.129 334.673 265.882 334.548 265.614C334.041 264.53 334.245 263.487 334.728 262.448C337.2 257.135 344.264 253.522 349.486 251.615L349.044 250.482C348.569 250.525 348.051 250.439 347.575 250.401C347.677 248.789 369.094 226.972 372.046 224.239C371.852 223.331 371.631 222.433 371.801 221.497C372.41 218.125 376.66 215.057 379.12 212.907C381.156 209.297 384.944 205.986 387.791 202.945C393.742 195.629 400.45 187.497 407.805 181.584C409.284 180.395 409.897 180.25 411.776 180.452C411.601 179.86 411.354 179.163 411.29 178.538C411.136 177.013 412.047 175.746 412.939 174.595C418.236 167.76 427.873 164.541 436.135 163.568L437.85 163.227C440.062 163.114 442.258 162.919 444.463 163.198C451.886 160.456 459.226 164.893 466.547 163.741Z"/>
	<path fill="#FDCF71" transform="matrix(1.99414 0 0 1.99414 -3.05176e-05 -0.00012207)" d="M496.213 272.731C519.326 287.564 543.106 301.327 566.673 315.417L645.839 363.248C662.212 373.122 678.787 382.731 694.854 393.099C690.972 396.393 662.92 426.903 660.912 430.958L660.658 430.998C657.091 435.903 652.902 440.505 648.858 445.019L648.598 445.058C641.674 439.681 633.045 435.211 625.533 430.575C604.464 417.572 582.989 405.249 561.77 392.499L494.146 351.778C480.004 343.171 465.756 333.512 450.908 326.202C454.446 321.039 458.887 316.19 462.941 311.416C474.223 298.687 485.644 286.067 496.213 272.731Z"/>
	<path fill="#E96778" transform="matrix(1.99414 0 0 1.99414 -3.05176e-05 -0.00012207)" d="M462.941 311.416C475.644 319.489 488.941 326.801 501.842 334.578L611.705 400.889C623.552 408.158 635.555 415.15 647.338 422.528C651.749 425.29 656.446 427.947 660.658 430.998C657.091 435.903 652.902 440.505 648.858 445.019L648.598 445.058C641.674 439.681 633.045 435.211 625.533 430.575C604.464 417.572 582.989 405.249 561.77 392.499L494.146 351.778C480.004 343.171 465.756 333.512 450.908 326.202C454.446 321.039 458.887 316.19 462.941 311.416Z"/>
	<path fill="#FDCF71" transform="matrix(1.99414 0 0 1.99414 -3.05176e-05 -0.00012207)" d="M450.908 326.202C465.756 333.512 480.004 343.171 494.146 351.778L561.77 392.499C582.989 405.249 604.464 417.572 625.533 430.575C633.045 435.211 641.674 439.681 648.598 445.058C636.788 456.968 627.504 471.473 615.624 483.278C589.797 466.6 563.178 451.076 536.897 435.12L419.089 363.425C422.386 358.847 426.454 354.701 430.127 350.419L450.908 326.202Z"/>
	<path fill="#0F4294" transform="matrix(1.99414 0 0 1.99414 -3.05176e-05 -0.00012207)" d="M362.807 245.671C373.87 242.249 384.376 246.933 393.939 245.367C408.733 246.897 424.563 255.491 435.123 265.747C433.666 267.636 432.046 269.511 430.811 271.552C429.352 274.795 427.906 277.345 424.47 278.761C424.315 278.825 424.151 278.868 423.992 278.921C422.981 281.081 401.784 304.693 398.869 307.271C397.058 309.467 395.53 311.824 393.971 314.2C392.056 316.756 389.989 319.416 387.437 321.369C379.161 330.128 370.235 338.807 362.969 348.422C352.928 339.573 337.751 330.666 324.104 329.858C319.322 330.681 314.307 330.498 309.464 330.572C303.733 330.584 297.858 330.787 292.18 331.62C290.357 331.922 288.371 332.101 286.633 332.736L286.562 331.752C282.561 331.797 277.238 334.514 273.46 335.928C278.625 330.112 298.613 311.483 300.932 306.715C300.516 305.665 300.384 304.644 300.782 303.553C302.736 298.2 311.834 294.323 316.645 292.128L315.583 291.081C313.428 291.755 311.464 292.923 309.474 293.974C317.766 284.949 325.842 275.142 335.011 267.016L334.981 266.387C334.837 266.129 334.673 265.882 334.548 265.614C334.041 264.53 334.245 263.487 334.728 262.448C337.2 257.135 344.264 253.522 349.486 251.615L349.044 250.482C353.561 249.035 358.087 247.619 362.624 246.233L362.807 245.671Z"/>
	<path fill="#0F4294" transform="matrix(1.99414 0 0 1.99414 -3.05176e-05 -0.00012207)" d="M336.365 287.961C344.595 286.565 352.263 289.574 357.723 288.796C371.955 289.903 388.349 297.782 398.869 307.271C397.058 309.467 395.53 311.824 393.971 314.2C392.056 316.756 389.989 319.416 387.437 321.369C379.161 330.128 370.235 338.807 362.969 348.422C352.928 339.573 337.751 330.666 324.104 329.858C319.322 330.681 314.307 330.498 309.464 330.572C303.733 330.584 297.858 330.787 292.18 331.62C290.357 331.922 288.371 332.101 286.633 332.736L286.562 331.752C282.561 331.797 277.238 334.514 273.46 335.928C278.625 330.112 298.613 311.483 300.932 306.715C300.516 305.665 300.384 304.644 300.782 303.553C302.736 298.2 311.834 294.323 316.645 292.128C321.858 289.06 330.426 288.212 336.365 287.961Z"/>
	<path fill="#E96778" transform="matrix(1.99414 0 0 1.99414 -3.05176e-05 -0.00012207)" d="M347.294 302.205C363.099 306.097 373.728 313.572 387.437 321.369C379.161 330.128 370.235 338.807 362.969 348.422C352.928 339.573 337.751 330.666 324.104 329.858C324.789 328.008 344.062 306.157 347.294 302.205Z"/>
	<path fill="#FEFEFD" transform="matrix(1.99414 0 0 1.99414 -3.05176e-05 -0.00012207)" d="M308.903 311.565C310.961 310.148 312.8 308.344 314.816 306.848C324.707 299.513 335.834 300.523 347.294 302.205C344.062 306.157 324.789 328.008 324.104 329.858C319.322 330.681 314.307 330.498 309.464 330.572C303.733 330.584 297.858 330.787 292.18 331.62C290.357 331.922 288.371 332.101 286.633 332.736L286.562 331.752C282.561 331.797 277.238 334.514 273.46 335.928C278.625 330.112 298.613 311.483 300.932 306.715L305.404 309.403C306.561 310.359 307.539 310.935 308.903 311.565Z"/>
	<path fill="#3679CB" transform="matrix(1.99414 0 0 1.99414 -3.05176e-05 -0.00012207)" d="M300.932 306.715L305.404 309.403C306.561 310.359 307.539 310.935 308.903 311.565C303.455 316.185 291.623 329.247 286.562 331.752C282.561 331.797 277.238 334.514 273.46 335.928C278.625 330.112 298.613 311.483 300.932 306.715Z"/>
	<path fill="#77BBFA" transform="matrix(1.99414 0 0 1.99414 -3.05176e-05 -0.00012207)" d="M336.365 287.961C344.595 286.565 352.263 289.574 357.723 288.796C371.955 289.903 388.349 297.782 398.869 307.271C397.058 309.467 395.53 311.824 393.971 314.2C393.805 314.009 393.641 313.816 393.472 313.627C383.479 302.414 360.779 290.787 345.739 289.947C345.644 289.923 345.551 289.892 345.455 289.875C342.352 289.317 339.521 288.093 336.365 287.961Z"/>
	<defs>
		<linearGradient id="gradient_0" gradientUnits="userSpaceOnUse" x1="317.91754" y1="298.41409" x2="315.78094" y2="293.08789">
			<stop offset="0" stop-color="#166ECA"/>
			<stop offset="1" stop-color="#2A83E6"/>
		</linearGradient>
	</defs>
	<path fill="url(#gradient_0)" transform="matrix(1.99414 0 0 1.99414 -3.05176e-05 -0.00012207)" d="M316.645 292.128C321.858 289.06 330.426 288.212 336.365 287.961C339.521 288.093 342.352 289.317 345.455 289.875C345.551 289.892 345.644 289.923 345.739 289.947C333.787 289.775 314.583 292.373 305.736 301.473C304.386 302.862 303.802 304.306 303.297 306.141C303.54 307.558 304.475 308.379 305.404 309.403L300.932 306.715C300.516 305.665 300.384 304.644 300.782 303.553C302.736 298.2 311.834 294.323 316.645 292.128Z"/>
	<path fill="#E96778" transform="matrix(1.99414 0 0 1.99414 -3.05176e-05 -0.00012207)" d="M383.043 259.549C399.144 262.319 410.186 271.227 423.992 278.921C422.981 281.081 401.784 304.693 398.869 307.271C388.349 297.782 371.955 289.903 357.723 288.796C360.71 283.649 365.584 279.321 369.619 274.985C374.303 270.026 378.782 264.876 383.043 259.549Z"/>
	<path fill="#FEFEFD" transform="matrix(1.99414 0 0 1.99414 -3.05176e-05 -0.00012207)" d="M344.17 269.997C345.463 268.915 346.781 267.866 348.123 266.848C358.62 258.902 370.362 257.737 383.043 259.549C378.782 264.876 374.303 270.026 369.619 274.985C365.584 279.321 360.71 283.649 357.723 288.796C352.263 289.574 344.595 286.565 336.365 287.961C330.426 288.212 321.858 289.06 316.645 292.128L315.583 291.081C313.428 291.755 311.464 292.923 309.474 293.974C317.766 284.949 325.842 275.142 335.011 267.016L334.981 266.387C337.007 266.504 338.452 266.989 340.295 267.821C341.546 268.637 342.743 269.519 344.17 269.997Z"/>
	<path fill="#3679CB" transform="matrix(1.99414 0 0 1.99414 -3.05176e-05 -0.00012207)" d="M334.981 266.387C337.007 266.504 338.452 266.989 340.295 267.821C341.546 268.637 342.743 269.519 344.17 269.997C338.055 275.594 332.586 281.806 326.696 287.625C322.938 288.647 319.311 290.011 315.583 291.081C313.428 291.755 311.464 292.923 309.474 293.974C317.766 284.949 325.842 275.142 335.011 267.016L334.981 266.387Z"/>
	<path fill="#77BBFA" transform="matrix(1.99414 0 0 1.99414 -3.05176e-05 -0.00012207)" d="M362.807 245.671C373.87 242.249 384.376 246.933 393.939 245.367C408.733 246.897 424.563 255.491 435.123 265.747C433.666 267.636 432.046 269.511 430.811 271.552C429.16 269.793 427.365 268.211 425.504 266.68C409.344 253.385 388.134 245.261 367.122 247.327C361.072 247.99 355.126 249.287 349.486 251.615L349.044 250.482C353.561 249.035 358.087 247.619 362.624 246.233L362.807 245.671Z"/>
	<path fill="#176CCC" transform="matrix(1.99414 0 0 1.99414 -3.05176e-05 -0.00012207)" d="M349.486 251.615C355.126 249.287 361.072 247.99 367.122 247.327C360.559 254.539 346.228 253.525 340.295 267.821C338.452 266.989 337.007 266.504 334.981 266.387C334.837 266.129 334.673 265.882 334.548 265.614C334.041 264.53 334.245 263.487 334.728 262.448C337.2 257.135 344.264 253.522 349.486 251.615Z"/>
	<path fill="#0F4294" transform="matrix(1.99414 0 0 1.99414 -3.05176e-05 -0.00012207)" d="M309.464 330.572C314.307 330.498 319.322 330.681 324.104 329.858C337.751 330.666 352.928 339.573 362.969 348.422C361.461 350.787 359.983 353.097 358.799 355.646C358.942 357.067 358.193 358.408 357.303 359.474C355.993 361.041 353.839 362.798 351.751 362.973C344.523 366.666 335.178 380.487 329.883 387.136C328.428 389.771 327.06 392.453 325.781 395.178C324.551 398.009 323.056 400.399 320.657 402.376C320.03 402.431 319.724 402.506 319.129 402.262C317.114 404.579 294.847 429.863 294.543 429.89C293.49 428.599 292.332 427.431 291.08 426.332C283.629 419.793 265.895 411.521 255.884 412.138C252.241 414.473 244.913 412.295 240.46 413.059C234.498 412.959 222.966 411.917 217.625 414.206L215.544 413.189C211.691 413.936 208.833 415.741 205.583 417.816C213.663 408.713 221.545 399.13 230.477 390.852C230.288 390.349 230.139 390.012 230.047 389.461C229.788 387.912 230.693 386.744 231.477 385.514C233.757 383.398 236.113 381.366 238.54 379.421C241.807 373.27 259.345 355.703 265.176 350.162C264.821 349.446 264.454 348.731 264.216 347.965C263.864 346.832 264.155 345.97 264.703 344.957C268.134 338.617 280.199 334.685 286.633 332.736C288.371 332.101 290.357 331.922 292.18 331.62C297.858 330.787 303.733 330.584 309.464 330.572Z"/>
	<path fill="#E96778" transform="matrix(1.99414 0 0 1.99414 -3.05176e-05 -0.00012207)" d="M279.234 384.3C293.632 388.045 306.9 393.699 319.129 402.262C317.114 404.579 294.847 429.863 294.543 429.89C293.49 428.599 292.332 427.431 291.08 426.332C283.629 419.793 265.895 411.521 255.884 412.138C259.987 404.959 273.295 391.43 279.234 384.3Z"/>
	<path fill="#0F4294" transform="matrix(1.99414 0 0 1.99414 -3.05176e-05 -0.00012207)" d="M309.464 330.572C314.307 330.498 319.322 330.681 324.104 329.858C337.751 330.666 352.928 339.573 362.969 348.422C361.461 350.787 359.983 353.097 358.799 355.646C358.942 357.067 358.193 358.408 357.303 359.474C355.993 361.041 353.839 362.798 351.751 362.973C342.174 354.211 327.078 346.594 314.627 343.208C304.052 340.166 293.009 340.437 283.245 345.914C279.426 348.056 276.231 350.868 273.058 353.854C271.845 353.285 270.818 352.588 269.729 351.821C268.318 350.98 266.741 350.616 265.176 350.162C264.821 349.446 264.454 348.731 264.216 347.965C263.864 346.832 264.155 345.97 264.703 344.957C268.134 338.617 280.199 334.685 286.633 332.736C288.371 332.101 290.357 331.922 292.18 331.62C297.858 330.787 303.733 330.584 309.464 330.572Z"/>
	<path fill="#77BBFA" transform="matrix(1.99414 0 0 1.99414 -3.05176e-05 -0.00012207)" d="M309.464 330.572C314.307 330.498 319.322 330.681 324.104 329.858C337.751 330.666 352.928 339.573 362.969 348.422C361.461 350.787 359.983 353.097 358.799 355.646C346.378 342.188 327.817 332.202 309.464 330.572Z"/>
	<path fill="#176CCC" transform="matrix(1.99414 0 0 1.99414 -3.05176e-05 -0.00012207)" d="M292.18 331.62C287.581 338.133 270.606 337.666 269.729 351.821C268.318 350.98 266.741 350.616 265.176 350.162C264.821 349.446 264.454 348.731 264.216 347.965C263.864 346.832 264.155 345.97 264.703 344.957C268.134 338.617 280.199 334.685 286.633 332.736C288.371 332.101 290.357 331.922 292.18 331.62Z"/>
	<path fill="#E96778" transform="matrix(1.99414 0 0 1.99414 -3.05176e-05 -0.00012207)" d="M314.627 343.208C327.078 346.594 342.174 354.211 351.751 362.973C344.523 366.666 335.178 380.487 329.883 387.136C319.498 379.176 304.402 371.142 291.079 370.449C293.995 364.444 309.287 349.273 314.627 343.208Z"/>
	<path fill="#FEFEFD" transform="matrix(1.99414 0 0 1.99414 -3.05176e-05 -0.00012207)" d="M239.669 393.906C241.174 392.547 242.754 391.273 244.403 390.092C255.078 382.47 266.783 382.208 279.234 384.3C273.295 391.43 259.987 404.959 255.884 412.138C252.241 414.473 244.913 412.295 240.46 413.059C234.498 412.959 222.966 411.917 217.625 414.206L215.544 413.189C211.691 413.936 208.833 415.741 205.583 417.816C213.663 408.713 221.545 399.13 230.477 390.852C230.288 390.349 230.139 390.012 230.047 389.461C229.788 387.912 230.693 386.744 231.477 385.514C232.41 386.845 233.227 388.43 234.765 389.104C235.533 388.957 235.844 388.923 236.487 388.446C236.572 389.437 236.526 392.462 237.21 393.027C237.975 393.659 238.728 393.721 239.669 393.906Z"/>
	<path fill="#3679CB" transform="matrix(1.99414 0 0 1.99414 -3.05176e-05 -0.00012207)" d="M230.477 390.852C230.288 390.349 230.139 390.012 230.047 389.461C229.788 387.912 230.693 386.744 231.477 385.514C232.41 386.845 233.227 388.43 234.765 389.104C235.533 388.957 235.844 388.923 236.487 388.446C236.572 389.437 236.526 392.462 237.21 393.027C237.975 393.659 238.728 393.721 239.669 393.906L238.843 394.592C232.646 400.395 226.802 406.534 220.677 412.401C218.977 412.617 217.198 412.747 215.544 413.189C211.691 413.936 208.833 415.741 205.583 417.816C213.663 408.713 221.545 399.13 230.477 390.852Z"/>
	<path fill="#176CCC" transform="matrix(1.99414 0 0 1.99414 -3.05176e-05 -0.00012207)" d="M230.477 390.852C230.288 390.349 230.139 390.012 230.047 389.461C229.788 387.912 230.693 386.744 231.477 385.514C232.41 386.845 233.227 388.43 234.765 389.104C235.533 388.957 235.844 388.923 236.487 388.446C236.572 389.437 236.526 392.462 237.21 393.027C237.975 393.659 238.728 393.721 239.669 393.906L238.843 394.592C235.746 393.926 233.616 391.492 230.477 390.852Z"/>
	<path fill="#FEFEFD" transform="matrix(1.99414 0 0 1.99414 -3.05176e-05 -0.00012207)" d="M273.058 353.854C276.231 350.868 279.426 348.056 283.245 345.914C293.009 340.437 304.052 340.166 314.627 343.208C309.287 349.273 293.995 364.444 291.079 370.449C290.226 371.289 289.042 371.136 287.882 371.156C279.003 371.308 267.888 369.384 259.352 371.429C254.199 372.721 249.2 374.165 244.285 376.2C242.665 377.771 240.67 378.709 238.54 379.421C241.807 373.27 259.345 355.703 265.176 350.162C266.741 350.616 268.318 350.98 269.729 351.821C270.818 352.588 271.845 353.285 273.058 353.854Z"/>
	<path fill="#3679CB" transform="matrix(1.99414 0 0 1.99414 -3.05176e-05 -0.00012207)" d="M265.176 350.162C266.741 350.616 268.318 350.98 269.729 351.821C270.818 352.588 271.845 353.285 273.058 353.854C268.168 358.925 262.965 365.058 257.269 369.189C253.604 371.847 246.939 372.522 244.285 376.2C242.665 377.771 240.67 378.709 238.54 379.421C241.807 373.27 259.345 355.703 265.176 350.162Z"/>
	<path fill="#77BBFA" transform="matrix(1.99414 0 0 1.99414 -3.05176e-05 -0.00012207)" d="M291.079 370.449C304.402 371.142 319.498 379.176 329.883 387.136C328.428 389.771 327.06 392.453 325.781 395.178C323.431 392.579 320.965 390.226 318.151 388.135C304.43 377.935 283.245 369.096 265.793 371.664C263.599 371.788 261.532 371.629 259.352 371.429C267.888 369.384 279.003 371.308 287.882 371.156C289.042 371.136 290.226 371.289 291.079 370.449Z"/>
	<path fill="#3679CB" transform="matrix(1.99414 0 0 1.99414 -3.05176e-05 -0.00012207)" d="M259.352 371.429C261.532 371.629 263.599 371.788 265.793 371.664C258.254 373.1 241.628 380.238 237.416 386.519C237.005 387.131 236.744 387.76 236.487 388.446C235.844 388.923 235.533 388.957 234.765 389.104C233.227 388.43 232.41 386.845 231.477 385.514C233.757 383.398 236.113 381.366 238.54 379.421C240.67 378.709 242.665 377.771 244.285 376.2C249.2 374.165 254.199 372.721 259.352 371.429Z"/>
	<path fill="#0F4294" transform="matrix(1.99414 0 0 1.99414 -3.05176e-05 -0.00012207)" d="M401.454 203.069C411.307 200.733 421.177 203.383 430.997 204.088C445.274 206.408 460.863 213.452 471.219 223.723C469.686 226.003 468.115 228.251 466.867 230.705C465.511 233.947 464.06 236.407 460.616 237.706C460.441 237.772 460.257 237.814 460.078 237.868C450.844 246.055 443.263 256.496 435.123 265.747C424.563 255.491 408.733 246.897 393.939 245.367C384.376 246.933 373.87 242.249 362.807 245.671L362.624 246.233C358.087 247.619 353.561 249.035 349.044 250.482C348.569 250.525 348.051 250.439 347.575 250.401C347.677 248.789 369.094 226.972 372.046 224.239C371.852 223.331 371.631 222.433 371.801 221.497C372.41 218.125 376.66 215.057 379.12 212.907C381.156 209.297 384.944 205.986 387.791 202.945C387.746 203.917 387.712 203.403 387.941 204.485C391.106 203.535 394.457 202.17 397.748 203.13C399.044 203.54 400.151 203.278 401.454 203.069Z"/>
	<path fill="#E96778" transform="matrix(1.99414 0 0 1.99414 -3.05176e-05 -0.00012207)" d="M420.304 217.247C429.969 220.533 438.659 224.822 447.369 230.133C451.504 232.654 455.702 235.841 460.078 237.868C450.844 246.055 443.263 256.496 435.123 265.747C424.563 255.491 408.733 246.897 393.939 245.367C397.978 242.269 401.333 237.837 404.723 234.048C409.762 228.305 414.957 222.703 420.304 217.247Z"/>
	<path fill="#FEFEFD" transform="matrix(1.99414 0 0 1.99414 -3.05176e-05 -0.00012207)" d="M380.331 228.322C383.491 225.16 386.51 222.2 390.38 219.921C400.276 214.093 409.551 214.561 420.304 217.247C414.957 222.703 409.762 228.305 404.723 234.048C401.333 237.837 397.978 242.269 393.939 245.367C384.376 246.933 373.87 242.249 362.807 245.671L362.624 246.233C358.087 247.619 353.561 249.035 349.044 250.482C348.569 250.525 348.051 250.439 347.575 250.401C347.677 248.789 369.094 226.972 372.046 224.239C373.54 225.322 374.863 226.305 376.604 226.946L380.331 228.322Z"/>
	<path fill="#3679CB" transform="matrix(1.99414 0 0 1.99414 -3.05176e-05 -0.00012207)" d="M372.046 224.239C373.54 225.322 374.863 226.305 376.604 226.946L380.331 228.322C376.269 232.621 364.24 241.726 361.936 245.293L362.807 245.671L362.624 246.233C358.087 247.619 353.561 249.035 349.044 250.482C348.569 250.525 348.051 250.439 347.575 250.401C347.677 248.789 369.094 226.972 372.046 224.239Z"/>
	<path fill="#77BBFA" transform="matrix(1.99414 0 0 1.99414 -3.05176e-05 -0.00012207)" d="M401.454 203.069C411.307 200.733 421.177 203.383 430.997 204.088C445.274 206.408 460.863 213.452 471.219 223.723C469.686 226.003 468.115 228.251 466.867 230.705C466.451 230.229 466.016 229.769 465.564 229.326C454.707 218.715 435.051 207.752 420.075 204.811C415.522 203.916 411.158 203.912 406.531 204.03C404.421 203.999 403.247 204.309 401.454 203.069Z"/>
	<path fill="#176CCC" transform="matrix(1.99414 0 0 1.99414 -3.05176e-05 -0.00012207)" d="M387.791 202.945C387.746 203.917 387.712 203.403 387.941 204.485C391.106 203.535 394.457 202.17 397.748 203.13C399.044 203.54 400.151 203.278 401.454 203.069C403.247 204.309 404.421 203.999 406.531 204.03C404.687 204.358 402.853 204.71 400.985 204.874C394.745 212.615 376.314 214.233 376.604 226.946C374.863 226.305 373.54 225.322 372.046 224.239C371.852 223.331 371.631 222.433 371.801 221.497C372.41 218.125 376.66 215.057 379.12 212.907C381.156 209.297 384.944 205.986 387.791 202.945Z"/>
	<path fill="#55A3FA" transform="matrix(1.99414 0 0 1.99414 -3.05176e-05 -0.00012207)" d="M387.791 202.945C387.746 203.917 387.712 203.403 387.941 204.485C391.106 203.535 394.457 202.17 397.748 203.13C399.044 203.54 400.151 203.278 401.454 203.069C403.247 204.309 404.421 203.999 406.531 204.03C404.687 204.358 402.853 204.71 400.985 204.874C395.186 205.975 390.135 207.328 384.797 209.875C382.876 210.792 381.078 212.125 379.12 212.907C381.156 209.297 384.944 205.986 387.791 202.945Z"/>
	<path fill="#0F4294" transform="matrix(1.99414 0 0 1.99414 -3.05176e-05 -0.00012207)" d="M444.463 163.198C451.886 160.456 459.226 164.893 466.547 163.741C478.989 166.655 495.738 173.861 504.638 183.21C503.511 185.678 502.431 188.156 501.054 190.497C499.306 193.138 496.71 196.332 493.952 197.977C489.857 201.862 486.324 206.36 482.577 210.577C478.722 214.917 474.702 219.066 471.219 223.723C460.863 213.452 445.274 206.408 430.997 204.088C421.177 203.383 411.307 200.733 401.454 203.069C400.151 203.278 399.044 203.54 397.748 203.13C394.457 202.17 391.106 203.535 387.941 204.485C387.712 203.403 387.746 203.917 387.791 202.945C393.742 195.629 400.45 187.497 407.805 181.584C409.284 180.395 409.897 180.25 411.776 180.452C411.601 179.86 411.354 179.163 411.29 178.538C411.136 177.013 412.047 175.746 412.939 174.595C418.236 167.76 427.873 164.541 436.135 163.568L437.85 163.227C440.062 163.114 442.258 162.919 444.463 163.198Z"/>
	<path fill="#E96778" transform="matrix(1.99414 0 0 1.99414 -3.05176e-05 -0.00012207)" d="M453.995 177.518C468.471 181.258 482.574 188.215 493.952 197.977C489.857 201.862 486.324 206.36 482.577 210.577C478.722 214.917 474.702 219.066 471.219 223.723C460.863 213.452 445.274 206.408 430.997 204.088C438.29 194.809 447.198 187.22 453.995 177.518Z"/>
	<path fill="#FEFEFD" transform="matrix(1.99414 0 0 1.99414 -3.05176e-05 -0.00012207)" d="M419.985 182.344C432.919 174.879 439.517 174.307 453.995 177.518C447.198 187.22 438.29 194.809 430.997 204.088C421.177 203.383 411.307 200.733 401.454 203.069C400.151 203.278 399.044 203.54 397.748 203.13C394.457 202.17 391.106 203.535 387.941 204.485C387.712 203.403 387.746 203.917 387.791 202.945C393.742 195.629 400.45 187.497 407.805 181.584C409.284 180.395 409.897 180.25 411.776 180.452C412.852 180.264 413.579 179.917 414.579 179.483C415.125 180.674 415.389 181.22 416.7 181.641C417.748 181.978 418.902 182.142 419.985 182.344Z"/>
	<path fill="#3679CB" transform="matrix(1.99414 0 0 1.99414 -3.05176e-05 -0.00012207)" d="M411.776 180.452C412.852 180.264 413.579 179.917 414.579 179.483C415.125 180.674 415.389 181.22 416.7 181.641C417.748 181.978 418.902 182.142 419.985 182.344C412.578 188.952 404.409 195.804 397.748 203.13C394.457 202.17 391.106 203.535 387.941 204.485C387.712 203.403 387.746 203.917 387.791 202.945C393.742 195.629 400.45 187.497 407.805 181.584C409.284 180.395 409.897 180.25 411.776 180.452Z"/>
	<path fill="#77BBFA" transform="matrix(1.99414 0 0 1.99414 -3.05176e-05 -0.00012207)" d="M444.463 163.198C451.886 160.456 459.226 164.893 466.547 163.741C478.989 166.655 495.738 173.861 504.638 183.21C503.511 185.678 502.431 188.156 501.054 190.497L500.717 190.076C488.537 175.134 463.224 165.256 444.463 163.198Z"/>
	<path fill="#176CCC" transform="matrix(1.99414 0 0 1.99414 -3.05176e-05 -0.00012207)" d="M411.776 180.452C411.601 179.86 411.354 179.163 411.29 178.538C411.136 177.013 412.047 175.746 412.939 174.595C418.236 167.76 427.873 164.541 436.135 163.568C433.084 166.985 426.707 167.805 422.826 170.508C419.128 173.084 417.387 176.156 414.579 179.483C413.579 179.917 412.852 180.264 411.776 180.452Z"/>
	<path fill="#0F4294" transform="matrix(1.99414 0 0 1.99414 -3.05176e-05 -0.00012207)" d="M775.708 308.847C787.746 316.716 800.427 323.837 812.911 330.984C821.419 335.855 833.666 341.058 840.352 347.983C843.387 351.126 845.153 355.467 845.868 359.74C845.971 360.354 845.962 360.486 845.98 361.032C847.012 366.79 848.347 385.478 845.267 390.14C841.445 395.924 836.35 401.205 831.812 406.431C822.323 417.359 812.555 428.018 802.982 438.868C780.664 464.163 758.995 490.156 737.043 515.776L608.815 665.393C599.172 676.481 589.613 687.641 580.139 698.874C574.227 705.825 568.346 713.291 561.703 719.558C555.349 725.551 546.031 730.307 537.399 731.734C532.728 732.506 528.251 732.262 523.564 731.792L523.452 762.498C523.417 769.875 522.889 777.236 522.921 784.611L522.514 784.589C522.285 794.669 521.931 804.798 521.12 814.849L522.944 815.37C528.512 818.791 534.551 821.213 540.343 824.206C544.7 826.457 548.781 829.222 553.147 831.441C552.633 834.994 552.541 837.636 553.591 841.143C555.364 847.791 559.001 852.53 564.948 855.989C567.389 857.409 569.849 858.49 572.514 859.416L572.884 859.979C572.015 860.502 571.207 860.858 570.251 861.198C566.5 861.8 562.842 862.397 559.027 862.32C552.903 862.197 547.459 860.504 542.085 857.635C536.459 854.632 531.19 850.959 525.62 847.842C490.549 828.216 456.212 807.141 421.772 786.435L257.396 688.472C231.712 673.072 205.579 658.403 179.969 642.875C172.567 638.386 162.926 634.293 156.997 628.01C150.079 620.679 145.338 610.299 143.355 600.47C141.48 591.177 142.554 580.093 142.574 570.591C142.6 558.132 142.3 545.571 142.773 533.129C143.147 523.283 147.576 513.412 154.84 506.734C161.609 500.512 168.664 499.22 177.534 499.595C189.155 501.112 204.768 512.803 215.354 518.515L306.198 574.019C318.18 581.227 330.362 588.095 342.242 595.475C369.274 612.27 396.638 628.366 423.88 644.801C436.99 652.711 449.685 661.867 463.237 668.992C468.111 662.287 474.15 656.091 479.625 649.86C490.94 637.186 502.165 624.431 513.297 611.596C537.235 583.645 561.344 555.842 585.624 528.188C597.631 514.487 609.325 500.591 621.774 487.277L615.624 483.278C627.504 471.473 636.788 456.968 648.598 445.058L648.858 445.019C652.902 440.505 657.091 435.903 660.658 430.998L660.912 430.958C662.92 426.903 690.972 396.393 694.854 393.099C696.582 394.262 698.297 395.369 699.829 396.789C702.087 392.288 716.733 377.21 720.762 372.655C739.336 351.653 758.377 330.899 775.708 308.847Z"/>
	<path fill="#3679CB" transform="matrix(1.99414 0 0 1.99414 -3.05176e-05 -0.00012207)" d="M775.708 308.847C787.746 316.716 800.427 323.837 812.911 330.984C821.419 335.855 833.666 341.058 840.352 347.983C843.387 351.126 845.153 355.467 845.868 359.74C845.971 360.354 845.962 360.486 845.98 361.032C845.862 361.276 845.741 361.519 845.625 361.764C843.193 366.933 843.016 372.208 839.413 377.064C834.56 383.604 828.864 389.776 823.606 396.013C809.673 412.539 795.346 428.63 781.094 444.874L701.117 537.604C665.346 578.862 630.417 620.829 594.428 661.907C585.257 672.375 577.066 683.908 567.524 693.99C562.743 699.075 556.877 703.016 550.362 705.521C541.986 708.697 532.019 708.697 523.832 704.938C511.913 699.464 500.756 691.454 489.508 684.694C480.945 679.547 471.278 674.815 463.237 668.992C468.111 662.287 474.15 656.091 479.625 649.86C490.94 637.186 502.165 624.431 513.297 611.596C537.235 583.645 561.344 555.842 585.624 528.188C597.631 514.487 609.325 500.591 621.774 487.277L615.624 483.278C627.504 471.473 636.788 456.968 648.598 445.058L648.858 445.019C652.902 440.505 657.091 435.903 660.658 430.998L660.912 430.958C662.92 426.903 690.972 396.393 694.854 393.099C696.582 394.262 698.297 395.369 699.829 396.789C702.087 392.288 716.733 377.21 720.762 372.655C739.336 351.653 758.377 330.899 775.708 308.847Z"/>
	<path fill="#FEC024" transform="matrix(1.99414 0 0 1.99414 -3.05176e-05 -0.00012207)" d="M648.598 445.058L648.858 445.019C652.822 448.198 656.867 451.267 660.229 455.105C652.718 464.052 636.193 484.554 627.894 490.823C625.8 489.709 623.742 488.611 621.774 487.277L615.624 483.278C627.504 471.473 636.788 456.968 648.598 445.058Z"/>
	<path fill="#FEC024" transform="matrix(1.99414 0 0 1.99414 -3.05176e-05 -0.00012207)" d="M694.854 393.099C696.582 394.262 698.297 395.369 699.829 396.789C699.997 400.949 700.064 405.112 700.031 409.274C692.115 420.137 682.102 430.067 673.372 440.343C669.092 437.553 665.06 433.98 660.912 430.958C662.92 426.903 690.972 396.393 694.854 393.099Z"/>
	<path fill="#DC4547" transform="matrix(1.99414 0 0 1.99414 -3.05176e-05 -0.00012207)" d="M660.912 430.958C665.06 433.98 669.092 437.553 673.372 440.343C669.038 445.305 664.657 450.226 660.229 455.105C656.867 451.267 652.822 448.198 648.858 445.019C652.902 440.505 657.091 435.903 660.658 430.998L660.912 430.958Z"/>
	<path fill="#ED9F27" transform="matrix(1.99414 0 0 1.99414 -3.05176e-05 -0.00012207)" d="M193.983 567.261C201.165 570.078 207.619 574.688 214.238 578.579L261.165 606.702L468.313 730.253L508.843 753.847C512.738 756.14 519.642 761.328 523.452 762.498C523.417 769.875 522.889 777.236 522.921 784.611L522.514 784.589C522.285 794.669 521.931 804.798 521.12 814.849C512.455 811.559 503.988 806.071 495.975 801.433C479.069 791.648 462.491 781.296 445.612 771.466L291.606 680.055C269.262 666.292 246.741 652.819 224.048 639.64C213.991 633.71 204.133 627.419 193.862 621.861C192.941 618.294 193.564 613.23 193.616 609.512C192.881 602.294 193.538 594.698 193.793 587.449C194.031 580.722 194.095 573.991 193.983 567.261Z"/>
	<path fill="#C5D9D7" transform="matrix(1.99414 0 0 1.99414 -3.05176e-05 -0.00012207)" d="M193.983 567.261C201.165 570.078 207.619 574.688 214.238 578.579L261.165 606.702L468.313 730.253L508.843 753.847C512.738 756.14 519.642 761.328 523.452 762.498C523.417 769.875 522.889 777.236 522.921 784.611L522.514 784.589C515.304 782.238 507.847 776.088 501.185 772.192L451.338 743.228L276.537 639.327L219.547 604.856C211.064 599.766 202.726 594.358 193.993 589.705C193.804 596.307 193.888 602.911 193.616 609.512C192.881 602.294 193.538 594.698 193.793 587.449C194.031 580.722 194.095 573.991 193.983 567.261Z"/>
	<path fill="#D1C0AA" transform="matrix(1.99414 0 0 1.99414 -3.05176e-05 -0.00012207)" d="M194.011 536.403C209.758 546.905 226.273 556.035 242.499 565.751L324.672 615.37L453.763 692.657C471.025 702.869 487.908 713.811 505.447 723.534C510.968 726.594 517.339 730.625 523.564 731.792L523.452 762.498C519.642 761.328 512.738 756.14 508.843 753.847L468.313 730.253L261.165 606.702L214.238 578.579C207.619 574.688 201.165 570.078 193.983 567.261L194.011 536.403Z"/>
	<path fill="#FEFEFD" transform="matrix(1.99414 0 0 1.99414 -3.05176e-05 -0.00012207)" d="M193.862 621.861C193.96 623.525 194.229 625.257 193.73 626.871C189.98 626.551 179.74 619.689 176.372 617.135C168.52 611.183 163.631 602.066 162.395 592.341C161.384 584.387 161.258 551.032 162.457 543.087C162.979 539.626 164.016 535.663 166.28 532.927C168.327 530.492 171.255 528.966 174.424 528.684C181.294 528.047 188.858 532.113 194.011 536.403L193.983 567.261C194.095 573.991 194.031 580.722 193.793 587.449C193.538 594.698 192.881 602.294 193.616 609.512C193.564 613.23 192.941 618.294 193.862 621.861Z"/>
	<path fill="#22B6B2" transform="matrix(1.99414 0 0 1.99414 -3.05176e-05 -0.00012207)" d="M880.556 535.048C888.826 546.223 892.624 558.778 890.461 572.711C889.144 581.188 885.497 589.312 880.411 596.193C869.053 611.556 855.908 625.668 843.683 640.335L751.388 749.709L652.219 868.374L615.215 913.193C606.872 923.126 598.596 934.83 587.983 942.454C574.608 952.062 557.591 954.864 541.505 952.075C534.829 950.917 528.452 948.35 522.527 945.11C516.073 941.582 509.951 937.336 503.697 933.462L467.463 911.297L353.169 842.447L202.006 752.122C185.497 742.106 168.366 732.919 152.185 722.384C146.246 718.517 140.663 714.486 136.545 708.63C129.571 698.714 126.658 685.764 128.904 673.844C131.153 661.912 138.367 651.081 148.118 643.955C148.585 644.376 149.06 644.788 149.543 645.19C157.931 652.301 167.898 657.53 177.361 663.046C188.962 669.903 200.603 676.69 212.285 683.409L310.405 741.826C368.697 777.186 427.324 811.993 486.277 846.24C503.237 855.943 519.334 867.62 536.949 876.115C546.824 880.877 556.419 882.938 567.382 881.964C580.299 880.817 593.902 875.246 603.676 866.675C613.823 857.777 621.836 845.525 630.503 835.152L690.514 763.096L880.556 535.048Z"/>
	<path fill="#E96778" transform="matrix(1.99414 0 0 1.99414 -3.05176e-05 -0.00012207)" d="M844.459 431.431L844.18 429.232L844.475 428.947C848.455 430.542 852.184 432.771 855.942 434.822C866.171 440.406 875.295 445.567 880.181 456.744C884.285 466.134 882.979 477.271 882.917 487.284C883.469 495.106 884.192 501.364 879.892 508.476C876.279 514.453 871.434 519.851 867.023 525.244C859.362 534.675 851.59 544.014 843.707 553.26L783.275 625.773C733.9 685.806 684.122 745.507 633.943 804.87C621.989 819.095 610.826 834.065 598.638 848.077C591.744 855.873 582.014 860.581 571.622 861.149C571.166 861.177 570.709 861.189 570.251 861.198C571.207 860.858 572.015 860.502 572.884 859.979L572.514 859.416C569.849 858.49 567.389 857.409 564.948 855.989C559.001 852.53 555.364 847.791 553.591 841.143C552.541 837.636 552.633 834.994 553.147 831.441C548.781 829.222 544.7 826.457 540.343 824.206C534.551 821.213 528.512 818.791 522.944 815.37L521.12 814.849C521.931 804.798 522.285 794.669 522.514 784.589L522.921 784.611C523.174 784.682 523.424 784.766 523.68 784.823C534.62 787.257 549.849 780.682 558.769 774.837C572.894 765.58 583.566 749.485 594.44 736.698L627.813 697.717L736.928 570.068L804.298 491.101C814.573 479.028 826.142 467.383 835.398 454.539C840.422 447.567 842.771 439.761 844.459 431.431Z"/>
	<path fill="#FEC024" transform="matrix(1.99414 0 0 1.99414 -3.05176e-05 -0.00012207)" d="M844.459 431.431C849.293 439.036 851.179 455.756 849.23 464.533C847.855 470.72 844.53 475.801 840.7 480.757C831.938 492.096 822.438 502.933 813.176 513.864L781.854 551.162L670.94 682.667L599.662 768.042C589.768 779.685 580.294 793.469 568.516 803.184C561.778 812.456 556.246 820.264 553.147 831.441C548.781 829.222 544.7 826.457 540.343 824.206C534.551 821.213 528.512 818.791 522.944 815.37L521.12 814.849C521.931 804.798 522.285 794.669 522.514 784.589L522.921 784.611C523.174 784.682 523.424 784.766 523.68 784.823C534.62 787.257 549.849 780.682 558.769 774.837C572.894 765.58 583.566 749.485 594.44 736.698L627.813 697.717L736.928 570.068L804.298 491.101C814.573 479.028 826.142 467.383 835.398 454.539C840.422 447.567 842.771 439.761 844.459 431.431Z"/>
	<path fill="#112565" transform="matrix(1.99414 0 0 1.99414 -3.05176e-05 -0.00012207)" d="M568.516 803.184C561.778 812.456 556.246 820.264 553.147 831.441C548.781 829.222 544.7 826.457 540.343 824.206C534.551 821.213 528.512 818.791 522.944 815.37C541.576 816.839 552.449 812.097 568.516 803.184Z"/>
	<path fill="#DC4547" transform="matrix(1.99414 0 0 1.99414 -3.05176e-05 -0.00012207)" d="M553.591 841.143C561.071 842.349 568.633 841.976 575.494 838.513C581.028 835.719 585.369 831.112 589.449 826.545C603.328 811.011 616.024 794.285 629.393 778.295L731.403 655.863L821.215 548.344L857.426 504.936C863.656 497.434 870.221 490.064 876.105 482.294C879.064 478.386 880.895 474.351 882.415 469.719C882.342 475.266 881.611 481.946 882.917 487.284C883.469 495.106 884.192 501.364 879.892 508.476C876.279 514.453 871.434 519.851 867.023 525.244C859.362 534.675 851.59 544.014 843.707 553.26L783.275 625.773C733.9 685.806 684.122 745.507 633.943 804.87C621.989 819.095 610.826 834.065 598.638 848.077C591.744 855.873 582.014 860.581 571.622 861.149C571.166 861.177 570.709 861.189 570.251 861.198C571.207 860.858 572.015 860.502 572.884 859.979L572.514 859.416C569.849 858.49 567.389 857.409 564.948 855.989C559.001 852.53 555.364 847.791 553.591 841.143Z"/>
	<path fill="#0F4294" transform="matrix(1.99414 0 0 1.99414 -3.05176e-05 -0.00012207)" d="M255.884 412.138C265.895 411.521 283.629 419.793 291.08 426.332C292.332 427.431 293.49 428.599 294.543 429.89C293.495 431.848 291.934 435.536 289.878 436.325C289.367 438.407 289.003 440.691 287.069 441.957C286.254 442.491 285.468 442.613 284.532 442.751C277.843 447.175 262.06 464.922 257.29 471.833C256.815 472.522 257.066 472.244 256.461 472.752C245.101 463.19 232.522 457.381 218.023 454.495L217.477 455.02C211.451 455.392 205.242 453.992 199.2 453.716C194.633 453.507 190.108 454.122 185.547 453.889C182.232 454.798 178.814 455.597 175.603 456.821C173.704 457.789 171.551 458.49 169.568 459.292C174.911 452.814 192.54 436.636 195.207 431.494C195.845 430.263 195.345 428.642 195.608 427.326C195.901 425.855 197.29 424.925 198.395 424.043C204.522 419.836 210.547 416.485 217.625 414.206C222.966 411.917 234.498 412.959 240.46 413.059C244.913 412.295 252.241 414.473 255.884 412.138Z"/>
	<path fill="#E96778" transform="matrix(1.99414 0 0 1.99414 -3.05176e-05 -0.00012207)" d="M243.859 425.267C254.134 427.459 262.857 430.783 272.042 435.86C276.156 438.135 280.278 440.766 284.532 442.751C277.843 447.175 262.06 464.922 257.29 471.833C256.815 472.522 257.066 472.244 256.461 472.752C245.101 463.19 232.522 457.381 218.023 454.495C224.399 444.373 235.636 434.154 243.859 425.267Z"/>
	<path fill="#FEFEFD" transform="matrix(1.99414 0 0 1.99414 -3.05176e-05 -0.00012207)" d="M204.736 434.444C206.696 432.844 208.685 431.226 210.772 429.792C220.383 423.192 232.826 423.15 243.859 425.267C235.636 434.154 224.399 444.373 218.023 454.495L217.477 455.02C211.451 455.392 205.242 453.992 199.2 453.716C194.633 453.507 190.108 454.122 185.547 453.889C182.232 454.798 178.814 455.597 175.603 456.821C173.704 457.789 171.551 458.49 169.568 459.292C174.911 452.814 192.54 436.636 195.207 431.494C195.845 430.263 195.345 428.642 195.608 427.326C195.901 425.855 197.29 424.925 198.395 424.043C197.287 425.927 196.627 427.052 196.677 429.268C198.253 432.343 201.97 432.699 204.736 434.444Z"/>
	<path fill="#3679CB" transform="matrix(1.99414 0 0 1.99414 -3.05176e-05 -0.00012207)" d="M169.568 459.292C174.911 452.814 192.54 436.636 195.207 431.494C195.845 430.263 195.345 428.642 195.608 427.326C195.901 425.855 197.29 424.925 198.395 424.043C197.287 425.927 196.627 427.052 196.677 429.268C198.253 432.343 201.97 432.699 204.736 434.444C198.099 440.608 191.465 447.027 185.547 453.889C182.232 454.798 178.814 455.597 175.603 456.821C173.704 457.789 171.551 458.49 169.568 459.292Z"/>
	<path fill="#77BBFA" transform="matrix(1.99414 0 0 1.99414 -3.05176e-05 -0.00012207)" d="M255.884 412.138C265.895 411.521 283.629 419.793 291.08 426.332C292.332 427.431 293.49 428.599 294.543 429.89C293.495 431.848 291.934 435.536 289.878 436.325C277.046 421.622 259.095 416.149 240.46 413.059C244.913 412.295 252.241 414.473 255.884 412.138Z"/>
	<path fill="#E96778" transform="matrix(1.99414 0 0 1.99414 -3.05176e-05 -0.00012207)" d="M185.547 453.889C190.108 454.122 194.633 453.507 199.2 453.716C205.242 453.992 211.451 455.392 217.477 455.02L218.023 454.495C232.522 457.381 245.101 463.19 256.461 472.752C255.227 475.121 253.555 477.182 252.238 479.492C251.2 481.902 249.776 485.277 247.205 486.472C246.567 486.769 246.023 486.935 245.329 486.939C238.627 491.057 221.882 511.584 215.354 518.515C204.768 512.803 189.155 501.112 177.534 499.595C186.004 488.576 196.311 479.067 204.589 467.777C193.19 464.783 181.914 466.211 171.684 472.099C169.534 473.336 168.065 474.597 166.466 476.512C165.624 477.52 164.839 478.52 163.655 479.131C163.469 479.064 163.28 479.004 163.097 478.929C161.127 478.118 158.772 476.545 158.113 474.388C157.605 472.727 157.868 471.246 158.704 469.763C161.936 464.032 170.598 460.161 176.631 458.28L175.603 456.821C178.814 455.597 182.232 454.798 185.547 453.889Z"/>
	<path fill="#0F4294" transform="matrix(1.99414 0 0 1.99414 -3.05176e-05 -0.00012207)" d="M185.547 453.889C190.108 454.122 194.633 453.507 199.2 453.716C205.242 453.992 211.451 455.392 217.477 455.02L218.023 454.495C232.522 457.381 245.101 463.19 256.461 472.752C255.227 475.121 253.555 477.182 252.238 479.492C251.2 481.902 249.776 485.277 247.205 486.472C246.567 486.769 246.023 486.935 245.329 486.939C232.391 479.831 219.299 470.54 204.589 467.777C193.19 464.783 181.914 466.211 171.684 472.099C169.534 473.336 168.065 474.597 166.466 476.512C165.624 477.52 164.839 478.52 163.655 479.131C163.469 479.064 163.28 479.004 163.097 478.929C161.127 478.118 158.772 476.545 158.113 474.388C157.605 472.727 157.868 471.246 158.704 469.763C161.936 464.032 170.598 460.161 176.631 458.28L175.603 456.821C178.814 455.597 182.232 454.798 185.547 453.889Z"/>
	<path fill="#77BBFA" transform="matrix(1.99414 0 0 1.99414 -3.05176e-05 -0.00012207)" d="M185.547 453.889C190.108 454.122 194.633 453.507 199.2 453.716C205.242 453.992 211.451 455.392 217.477 455.02L218.023 454.495C232.522 457.381 245.101 463.19 256.461 472.752C255.227 475.121 253.555 477.182 252.238 479.492C244.231 472.714 235.825 466.684 226.302 462.195C210.821 454.899 193.027 452.42 176.631 458.28L175.603 456.821C178.814 455.597 182.232 454.798 185.547 453.889Z"/>
</svg>
