<?xml version="1.0" encoding="utf-8" ?>
<svg xmlns="http://www.w3.org/2000/svg" xmlns:xlink="http://www.w3.org/1999/xlink" width="3995" height="3995">
	<path fill="#674F32" transform="matrix(7.80273 0 0 7.80273 -0.00012207 0)" d="M106.532 144.346C107.752 129.7 101.089 107.401 121.781 104.763L301.126 104.754C323.16 104.754 333.399 101.162 333.325 126.642L333.403 388.683C333.551 405.496 319.835 405.774 308.078 405.769L206.375 405.757L141.965 405.763C129.288 405.756 122.172 406.153 117.568 392.296C105.752 384.508 106.47 384.22 106.509 369.027L106.532 351.749C101.849 351.752 92.4923 352.393 88.2578 351.328C75.5893 348.142 75.1052 328.29 88.3501 325.129C92.4046 324.161 101.912 324.761 106.532 324.776C106.898 313.822 106.541 302.716 106.532 291.747C101.724 291.737 92.16 292.449 87.8822 291.286C75.2284 287.845 75.354 269.524 87.862 265.815C92.2455 264.515 101.629 265.206 106.532 265.225L106.532 230.982C98.9084 230.302 88.7294 233.195 82.5352 227.47C75.1308 220.625 78.1344 207.679 87.9243 204.85C91.5619 203.799 101.989 204.474 106.532 204.475L106.532 170.999C101.746 170.992 91.8781 171.65 87.6725 170.448C78.4162 167.803 75.3702 155.315 82.087 148.403C88.0224 142.296 98.8971 144.334 106.532 144.346ZM120.839 110.526C111.401 112.333 112.211 121.97 112.216 129.288L112.244 144.346C117.975 144.335 130.523 143.658 135.398 145.075C147.44 148.576 146.916 167.496 134.626 170.495C129.839 171.663 117.781 171.01 112.244 170.999L112.244 204.475C117.419 204.462 130.135 203.818 134.612 204.978C147.73 208.376 147.118 227.767 133.962 230.671C129.909 231.566 117.207 230.989 112.244 230.982L112.244 265.225C117.303 265.218 130.159 264.628 134.228 265.68C147.446 269.098 147.476 287.789 134.225 291.206C129.547 292.412 117.731 291.758 112.244 291.747L112.244 324.776C117.391 324.763 129.85 324.121 134.12 325.223C143.712 327.699 147.803 340.465 140.432 347.674C134.105 353.863 120.83 351.613 112.244 351.749L112.219 369.447C112.207 378.721 111.038 386.82 123.702 386.869L173.028 386.775C190.66 386.774 208.327 386.528 225.955 386.775C228.73 382.939 232.565 379.994 235.749 376.515C234.647 327.829 266.099 302.828 309.275 290.177L309.27 136.286C309.272 129.127 312.295 111.91 301.494 110.775C294.272 110.016 286.624 110.517 279.356 110.524L160.198 110.522C147.096 110.521 133.934 110.12 120.839 110.526ZM311.623 110.526C316.54 120.032 314.941 125.182 314.929 135.619L314.938 288.506C324.465 286.554 323.893 287.659 323.537 296.914C323.143 307.19 321.607 317.272 318.691 327.146C315.152 339.132 314.871 335.783 314.922 348.399L314.955 370.28C314.954 380.847 314.601 391.92 300.897 392.285C286.066 392.68 271.121 392.291 256.278 392.291L167.394 392.3C162.518 392.301 126.036 391.302 124.03 392.958C123.599 395.235 126.876 397.629 128.459 398.74C134.294 401.851 170.263 400.235 178.75 400.235L299.088 400.226C313.564 400.248 327.315 404.521 327.704 385.84C328.135 365.153 327.734 344.37 327.734 323.675L327.75 133.468C327.772 116.476 330.887 110.465 311.623 110.526ZM90.3141 149.914C81.2842 152.651 81.6778 164.862 91.8783 165.357C101.053 165.803 123.04 166.333 132.034 165.331C139.06 163.752 141.722 154.623 134.578 150.952C130.431 148.821 119.961 149.902 115.294 149.9L90.3141 149.914ZM90.3141 209.917C83.4369 212.326 80.3943 221.221 88.3495 224.635C91.4552 225.968 95.4425 225.352 98.7254 225.349L125.619 225.383C127.724 225.398 129.942 225.558 132.034 225.349C138.494 223.635 141.657 214.953 134.941 211.15C131.083 208.966 97.1556 209.663 90.3141 209.917ZM90.3141 270.667C82.427 273.924 81.5919 282.996 88.7375 285.6C90.715 286.321 125.381 286.9 132.034 286.213C134.55 284.982 137.445 283.401 138.334 280.531C142.241 267.915 121.146 270.651 115 270.651L90.3141 270.667ZM317.313 293.774C312.111 295.256 306.821 296.613 301.7 298.353C268.496 309.633 240.672 335.098 241.255 372.134C248.957 363.779 257.206 356.081 265.149 347.975C269.063 343.981 282.321 326.548 287.168 329.181C287.748 330.027 288.354 330.718 288.066 331.807C286.953 336.022 254.113 366.297 245.683 375.007C291.641 375.801 317.871 339.45 318.237 295.474C318.242 294.863 318.261 294.339 317.962 293.791L317.313 293.774ZM90.9387 330.233C84.2343 331.543 80.6359 340.726 87.3066 344.743C90.9566 346.942 124.184 346.784 131.362 346.205C141.215 343.62 140.905 330.878 130.296 330.235C126.361 329.997 122.281 330.255 118.329 330.245L90.9387 330.233ZM309.275 347.788C295.9 368.134 274.746 380.411 250.435 380.264C247.385 380.245 244.294 379.97 241.255 380.266C238.198 381.731 235.404 384.22 233.187 386.775L293.874 386.793C312.174 386.834 309.292 382.318 309.235 366.08C309.225 363.201 309.767 349.293 309.275 347.788Z"/>
	<path fill="#E7CFC3" transform="matrix(7.80273 0 0 7.80273 -0.00012207 0)" d="M112.244 144.346L112.216 129.288C112.211 121.97 111.401 112.333 120.839 110.526C133.934 110.12 147.096 110.521 160.198 110.522L279.356 110.524C286.624 110.517 294.272 110.016 301.494 110.775C312.295 111.91 309.272 129.127 309.27 136.286L309.275 290.177C266.099 302.828 234.647 327.829 235.749 376.515C232.565 379.994 228.73 382.939 225.955 386.775C208.327 386.528 190.66 386.774 173.028 386.775L123.702 386.869C111.038 386.82 112.207 378.721 112.219 369.447L112.244 351.749C120.83 351.613 134.105 353.863 140.432 347.674C147.803 340.465 143.712 327.699 134.12 325.223C129.85 324.121 117.391 324.763 112.244 324.776L112.244 291.747C117.731 291.758 129.547 292.412 134.225 291.206C147.476 287.789 147.446 269.098 134.228 265.68C130.159 264.628 117.303 265.218 112.244 265.225L112.244 230.982C117.207 230.989 129.909 231.566 133.962 230.671C147.118 227.767 147.73 208.376 134.612 204.978C130.135 203.818 117.419 204.462 112.244 204.475L112.244 170.999C117.781 171.01 129.839 171.663 134.626 170.495C146.916 167.496 147.44 148.576 135.398 145.075C130.523 143.658 117.975 144.335 112.244 144.346ZM267.116 132.431L182.744 132.425C162.352 132.433 163.933 134.689 163.935 152.588L163.968 173.536C164.091 184.232 167.93 186.239 178.225 186.192L262.284 186.216C282.895 186.256 281.897 184.342 281.806 162.888C281.744 148.022 286.793 131.614 267.116 132.431Z"/>
	<path fill="#BE7D69" transform="matrix(7.80273 0 0 7.80273 -0.00012207 0)" d="M314.938 288.506L314.929 135.619C314.941 125.182 316.54 120.032 311.623 110.526C330.887 110.465 327.772 116.476 327.75 133.468L327.734 323.675C327.734 344.37 328.135 365.153 327.704 385.84C327.315 404.521 313.564 400.248 299.088 400.226L178.75 400.235C170.263 400.235 134.294 401.851 128.459 398.74C126.876 397.629 123.599 395.235 124.03 392.958C126.036 391.302 162.518 392.301 167.394 392.3L256.278 392.291C271.121 392.291 286.066 392.68 300.897 392.285C314.601 391.92 314.954 380.847 314.955 370.28L314.922 348.399C314.871 335.783 315.152 339.132 318.691 327.146C321.607 317.272 323.143 307.19 323.537 296.914C323.893 287.659 324.465 286.554 314.938 288.506Z"/>
	<path fill="#674F32" transform="matrix(7.80273 0 0 7.80273 -0.00012207 0)" d="M394.721 381.071C392.799 386.689 385.078 404.494 380.518 406.077C374.311 405.684 363.247 370.513 361.752 365.013C358.876 354.435 359.332 352.284 359.361 341.461L359.349 144.414C359.341 129.883 360.859 114.041 380.186 112.618C398.232 111.874 403.502 126.241 403.184 141.504C416.543 141.532 417.679 148.093 420.424 158.741L424.855 175.768C430.22 196.031 434.827 200.741 430.932 221.999L423.58 261.596C423.087 264.258 422.721 267.117 421.849 269.684C418.999 278.078 407.409 277.897 403.184 267.925C402.813 274.773 403.179 281.714 403.184 288.578L403.189 330.465C403.189 354.96 403.097 357.621 394.721 381.071ZM388.1 119.82C379.688 116.21 370.211 119.992 366.571 128.4C364.327 133.581 365.221 141.215 365.238 146.784L372.377 146.784L397.137 146.784C397.032 136.324 399.35 125.578 388.1 119.82ZM376.397 152.4L365.238 152.4L365.238 236.903C368.848 235.025 372.584 233.649 376.397 232.254C384.938 232.33 390.12 230.968 397.137 236.903L397.137 152.4C390.226 152.325 383.309 152.388 376.397 152.4ZM415.649 163.434C412.986 153.003 414.379 148.637 403.184 146.784C403.642 152.467 404.47 153.395 406.04 158.552C405.103 159.214 404.178 159.869 403.184 160.445C403.346 163.436 403.339 166.37 403.184 169.362C405.121 168.275 408.322 164.717 409.117 168.339C410.95 174.879 419.685 205.187 419.444 209.072C418.862 218.455 415.238 230.054 413.977 239.918C412.789 245.687 409.26 260.73 409.23 265.634C409.209 268.905 412.348 271.269 415.056 268.951C417.246 267.076 418.65 256.629 419.162 253.454C420.685 247.915 421.698 240.106 422.772 234.254L425.332 220.66C428.027 206.722 427.623 207.552 423.995 193.884C421.294 183.71 418.297 173.623 415.649 163.434ZM372.377 239.918C369.885 240.869 367.484 241.835 365.238 243.29L365.238 347.788L372.377 345.375C374.97 344.884 377.556 344.621 380.186 344.445C386.487 344.385 391.502 345.862 397.137 348.571L397.142 278.661C397.142 274.166 397.691 247.53 396.752 245.123C393.3 236.276 379.388 236.916 372.377 239.918ZM403.184 170.999C403.653 178.226 403.179 186.704 403.178 194.075L403.19 242.175C403.191 245 402.489 261.707 403.46 262.576C404.177 259.837 404.415 256.988 405.126 254.255C407.109 244.384 413.602 217.913 413.696 208.701C413.73 205.3 404.978 173.663 403.184 170.999ZM377.435 350.352C372.924 350.918 368.971 352.171 365.238 354.795C367.54 367.752 373.613 385.996 380.186 397.293C380.872 396.445 381.582 395.608 382.219 394.723C389.015 382.85 393.664 368.013 397.137 354.795C390.824 351.905 384.535 349.513 377.435 350.352Z"/>
	<path fill="#E7CFC3" transform="matrix(7.80273 0 0 7.80273 -0.00012207 0)" d="M365.238 146.784C365.221 141.215 364.327 133.581 366.571 128.4C370.211 119.992 379.688 116.21 388.1 119.82L387.695 120.083C386.11 121.093 384.251 121.75 382.594 122.66C372.508 128.194 372.293 136.644 372.377 146.784L365.238 146.784Z"/>
	<path fill="#BE7D69" transform="matrix(7.80273 0 0 7.80273 -0.00012207 0)" d="M388.1 119.82C399.35 125.578 397.032 136.324 397.137 146.784L372.377 146.784C372.293 136.644 372.508 128.194 382.594 122.66C384.251 121.75 386.11 121.093 387.695 120.083L388.1 119.82Z"/>
	<path fill="#674F32" transform="matrix(7.80273 0 0 7.80273 -0.00012207 0)" d="M178.225 186.192C167.93 186.239 164.091 184.232 163.968 173.536L163.935 152.588C163.933 134.689 162.352 132.433 182.744 132.425L267.116 132.431C286.793 131.614 281.744 148.022 281.806 162.888C281.897 184.342 282.895 186.256 262.284 186.216L178.225 186.192ZM173.028 137.983C170.335 138.619 169.746 139.979 169.603 142.564C169.397 146.259 169.018 175.497 169.754 177.962C171.242 182.947 201.684 180.577 207.359 180.577L272.527 180.581C273.958 180.069 275.123 179.418 275.75 177.962C276.595 176.001 276.52 142.953 275.646 140.807C273.478 135.481 244.538 137.998 238.124 137.994L173.028 137.983Z"/>
	<path fill="#A8B858" transform="matrix(7.80273 0 0 7.80273 -0.00012207 0)" d="M272.527 180.581L207.359 180.577C201.684 180.577 171.242 182.947 169.754 177.962C169.018 175.497 169.397 146.259 169.603 142.564C169.746 139.979 170.335 138.619 173.028 137.983L238.124 137.994C244.538 137.998 273.478 135.481 275.646 140.807C276.52 142.953 276.595 176.001 275.75 177.962C275.123 179.418 273.958 180.069 272.527 180.581Z"/>
	<path fill="#E7CFC3" transform="matrix(7.80273 0 0 7.80273 -0.00012207 0)" d="M403.184 146.784C414.379 148.637 412.986 153.003 415.649 163.434C418.297 173.623 421.294 183.71 423.995 193.884C427.623 207.552 428.027 206.722 425.332 220.66L422.772 234.254C421.698 240.106 420.685 247.915 419.162 253.454C417.894 252.076 416.246 255.13 414.75 253.231C411.768 249.446 418.164 244.181 414.514 239.611L413.977 239.918C415.238 230.054 418.862 218.455 419.444 209.072C419.685 205.187 410.95 174.879 409.117 168.339C408.322 164.717 405.121 168.275 403.184 169.362C403.339 166.37 403.346 163.436 403.184 160.445C404.178 159.869 405.103 159.214 406.04 158.552C404.47 153.395 403.642 152.467 403.184 146.784Z"/>
	<path fill="#A8B858" transform="matrix(7.80273 0 0 7.80273 -0.00012207 0)" d="M132.034 165.331C123.04 166.333 101.053 165.803 91.8783 165.357C81.6778 164.862 81.2842 152.651 90.3141 149.914L115.294 149.9C119.961 149.902 130.431 148.821 134.578 150.952C141.722 154.623 139.06 163.752 132.034 165.331Z"/>
	<path fill="#E7CFC3" transform="matrix(7.80273 0 0 7.80273 -0.00012207 0)" d="M365.238 152.4L376.397 152.4C383.309 152.388 390.226 152.325 397.137 152.4L397.137 236.903C390.12 230.968 384.938 232.33 376.397 232.254C372.584 233.649 368.848 235.025 365.238 236.903L365.238 152.4Z"/>
	<path fill="#A8B858" transform="matrix(7.80273 0 0 7.80273 -0.00012207 0)" d="M132.034 225.349C129.942 225.558 127.724 225.398 125.619 225.383L98.7254 225.349C95.4425 225.352 91.4552 225.968 88.3495 224.635C80.3943 221.221 83.4369 212.326 90.3141 209.917C97.1556 209.663 131.083 208.966 134.941 211.15C141.657 214.953 138.494 223.635 132.034 225.349Z"/>
	<path fill="#BE7D69" transform="matrix(7.80273 0 0 7.80273 -0.00012207 0)" d="M372.377 239.918C379.388 236.916 393.3 236.276 396.752 245.123C397.691 247.53 397.142 274.166 397.142 278.661L397.137 348.571C391.502 345.862 386.487 344.385 380.186 344.445C388.206 342.622 391.749 333.028 390.437 325.468C388.733 315.651 381.644 310.337 376.355 302.601C375.011 300.635 374.297 297.212 372.377 295.841C372.809 289.93 372.368 283.684 372.368 277.735L372.377 239.918Z"/>
	<path fill="#E7CFC3" transform="matrix(7.80273 0 0 7.80273 -0.00012207 0)" d="M365.238 243.29C367.484 241.835 369.885 240.869 372.377 239.918L372.368 277.735C372.368 283.684 372.809 289.93 372.377 295.841C372.218 301.274 372.373 306.724 372.379 312.16L372.377 345.375L365.238 347.788L365.238 243.29Z"/>
	<path fill="#A8B858" transform="matrix(7.80273 0 0 7.80273 -0.00012207 0)" d="M132.034 286.213C125.381 286.9 90.715 286.321 88.7375 285.6C81.5919 282.996 82.427 273.924 90.3141 270.667L115 270.651C121.146 270.651 142.241 267.915 138.334 280.531C137.445 283.401 134.55 284.982 132.034 286.213Z"/>
	<path fill="#A8B858" transform="matrix(7.80273 0 0 7.80273 -0.00012207 0)" d="M241.255 372.134C240.672 335.098 268.496 309.633 301.7 298.353C306.821 296.613 312.111 295.256 317.313 293.774L317.962 293.791C318.261 294.339 318.242 294.863 318.237 295.474C317.871 339.45 291.641 375.801 245.683 375.007C254.113 366.297 286.953 336.022 288.066 331.807C288.354 330.718 287.748 330.027 287.168 329.181C282.321 326.548 269.063 343.981 265.149 347.975C257.206 356.081 248.957 363.779 241.255 372.134Z"/>
	<path fill="#BBA096" transform="matrix(7.80273 0 0 7.80273 -0.00012207 0)" d="M372.377 295.841C374.297 297.212 375.011 300.635 376.355 302.601C381.644 310.337 388.733 315.651 390.437 325.468C391.749 333.028 388.206 342.622 380.186 344.445C377.556 344.621 374.97 344.884 372.377 345.375L372.379 312.16C372.373 306.724 372.218 301.274 372.377 295.841Z"/>
	<path fill="#A8B858" transform="matrix(7.80273 0 0 7.80273 -0.00012207 0)" d="M131.362 346.205C124.184 346.784 90.9566 346.942 87.3066 344.743C80.6359 340.726 84.2343 331.543 90.9387 330.233L118.329 330.245C122.281 330.255 126.361 329.997 130.296 330.235C140.905 330.878 141.215 343.62 131.362 346.205Z"/>
	<path fill="#E7CFC3" transform="matrix(7.80273 0 0 7.80273 -0.00012207 0)" d="M241.255 380.266C244.294 379.97 247.385 380.245 250.435 380.264C274.746 380.411 295.9 368.134 309.275 347.788C309.767 349.293 309.225 363.201 309.235 366.08C309.292 382.318 312.174 386.834 293.874 386.793L233.187 386.775C235.404 384.22 238.198 381.731 241.255 380.266Z"/>
</svg>
