<?xml version="1.0" encoding="utf-8" ?>
<svg xmlns="http://www.w3.org/2000/svg" xmlns:xlink="http://www.w3.org/1999/xlink" width="1024" height="1024">
	<path fill="red" transform="scale(2 2)" d="M127.283 152.359C130.339 134.495 140.966 136.002 156.17 135.999L185.46 136.007L185.46 374.684L152.435 374.698C131.102 374.697 127.361 377.7 127.283 353.023C127.289 352.582 127.21 351.365 127.562 351.154C129.072 350.251 143.442 351.666 147.694 350.565C157.786 347.95 158.284 333.255 147.886 330.756C144.066 329.838 131.945 330.439 127.283 330.459L127.283 309.578C132.421 310.032 138.418 309.489 143.779 309.723C156.519 310.28 160.532 292.679 148.175 289.432C143.869 288.3 132.374 288.934 127.283 288.95L127.283 267.523C131.603 267.801 143.959 267.977 147.557 267.294C157.664 265.374 158.616 250.18 148.582 247.549C143.98 246.342 132.57 246.987 127.283 247.001C127.278 241.194 127.693 235.153 127.283 229.373L127.283 227.464C128.094 223.95 144.963 231.119 152.85 223.854C158.251 218.879 156.199 208.978 149.013 207.14C145.049 206.127 132.264 206.702 127.283 206.702C127.433 200.621 127.842 192.959 127.283 186.981L127.283 185.774C132.162 185.794 144.272 186.368 148.342 185.51C155.613 183.977 159.153 174.439 153.598 168.937C149.229 164.61 134.121 166.267 127.283 166.269C127.655 162.703 127.497 155.998 127.283 152.359Z"/>
	<path fill="white" transform="scale(2 2)" d="M185.46 136.007L351.936 136.007L351.936 374.684L185.46 374.684L185.46 136.007ZM279.444 166.269L219.728 166.242C203.06 166.197 206.334 172.416 206.423 187.736C206.459 193.861 206.26 200.002 206.377 206.123C206.629 219.312 220.671 215.755 230.16 215.753L266.756 215.736L303.409 215.743C327.589 215.788 326.684 218.33 326.72 191.225C326.748 169.85 330.339 166.273 306.756 166.264L279.444 166.269ZM214.653 245.265C209.953 247.445 208.701 254.841 214.291 256.516C218.059 257.645 233.544 257.039 238.502 257.038L304.504 257.044C307.491 257.049 310.564 257.296 313.535 257.036C318.345 254.379 320.013 246.995 313.408 245.517C310.251 244.81 306.171 245.255 302.933 245.254L237.059 245.259C229.618 245.257 222.085 245.01 214.653 245.265ZM215.853 274.284C210.494 275.371 208.405 282.133 213.671 285.117C216.469 286.703 226.866 285.774 230.265 285.768L313.535 285.755C319.995 283.643 318.998 274.681 312.24 274.286C308.558 274.071 304.772 274.267 301.077 274.275L215.853 274.284ZM221.605 302.793C218.785 302.85 214.199 302.427 212.127 304.648C209.936 306.997 210.559 311.3 212.988 313.24C215.694 315.402 224.147 314.442 227.475 314.438L307.611 314.422C313.001 314.456 316.713 314.678 318.398 308.908C316.059 300.409 309.409 302.786 301.71 302.787L221.605 302.793ZM272.292 331.157L221.685 331.154C204.56 331.151 211.009 342.14 216.07 342.753C219.875 343.215 224.466 342.768 228.36 342.768L257.083 342.771L295.63 342.785C300.197 342.785 309.351 343.257 313.483 342.604C320.144 341.552 319.72 332.018 312.894 331.204C308.394 330.667 303.419 331.13 298.859 331.15L272.292 331.157Z"/>
	<path fill="white" transform="scale(2 2)" d="M369.102 195.291L369.086 180.607C369.052 172.144 368.258 164.355 374.797 157.866C385.162 147.58 404.064 151.674 408.26 166.124C410.185 172.752 409.508 189.852 409.328 197.769L409.317 198.126C409.267 197.185 409.306 196.234 409.317 195.291L369.102 195.291Z"/>
	<path fill="#DEDEDE" transform="scale(2 2)" d="M127.283 166.269C127.362 161.685 126.859 156.908 127.283 152.359C127.497 155.998 127.655 162.703 127.283 166.269C134.121 166.267 149.229 164.61 153.598 168.937C159.153 174.439 155.613 183.977 148.342 185.51C144.272 186.368 132.162 185.794 127.283 185.774C119.197 185.798 103.313 187.486 103.379 175.438C103.448 163.08 119.516 166.206 127.283 166.269Z"/>
	<path fill="#DEDEDE" transform="scale(2 2)" d="M266.756 215.736L230.16 215.753C220.671 215.755 206.629 219.312 206.377 206.123C206.26 200.002 206.459 193.861 206.423 187.736C206.334 172.416 203.06 166.197 219.728 166.242L279.444 166.269L306.756 166.264C330.339 166.273 326.748 169.85 326.72 191.225C326.684 218.33 327.589 215.788 303.409 215.743L266.756 215.736Z"/>
	<path fill="#DEDEDE" transform="scale(2 2)" d="M127.283 186.981C127.842 192.959 127.433 200.621 127.283 206.702C132.264 206.702 145.049 206.127 149.013 207.14C156.199 208.978 158.251 218.879 152.85 223.854C144.963 231.119 128.094 223.95 127.283 227.464L127.132 226.849C125.908 225.833 112.701 227.865 107.47 224.561C103.079 221.788 101.792 215.11 104.837 210.868C109.387 204.529 120.592 207.707 127.283 206.702C126.878 201.895 126.958 191.798 127.283 186.981Z"/>
	<path fill="red" transform="scale(2 2)" d="M369.102 195.291L409.317 195.291C409.306 196.234 409.267 197.185 409.317 198.126L409.317 314.422C405.175 314.265 400.985 314.403 396.837 314.409L369.102 314.422L369.102 195.291Z"/>
	<path fill="#DEDEDE" transform="scale(2 2)" d="M127.283 229.373C127.693 235.153 127.278 241.194 127.283 247.001C132.57 246.987 143.98 246.342 148.582 247.549C158.616 250.18 157.664 265.374 147.557 267.294C143.959 267.977 131.603 267.801 127.283 267.523C121.579 265.708 104.596 271.418 103.303 258.804C101.809 244.225 117.601 247.747 126.931 247.029L127.283 247.001C127.041 241.287 126.883 235.06 127.283 229.373Z"/>
	<path fill="red" transform="scale(2 2)" d="M313.535 257.036C310.564 257.296 307.491 257.049 304.504 257.044L238.502 257.038C233.544 257.039 218.059 257.645 214.291 256.516C208.701 254.841 209.953 247.445 214.653 245.265C222.085 245.01 229.618 245.257 237.059 245.259L302.933 245.254C306.171 245.255 310.251 244.81 313.408 245.517C320.013 246.995 318.345 254.379 313.535 257.036Z"/>
	<path fill="red" transform="scale(2 2)" d="M313.535 285.755L230.265 285.768C226.866 285.774 216.469 286.703 213.671 285.117C208.405 282.133 210.494 275.371 215.853 274.284L301.077 274.275C304.772 274.267 308.558 274.071 312.24 274.286C318.998 274.681 319.995 283.643 313.535 285.755Z"/>
	<path fill="#DEDEDE" transform="scale(2 2)" d="M127.283 288.95C132.374 288.934 143.869 288.3 148.175 289.432C160.532 292.679 156.519 310.28 143.779 309.723C138.418 309.489 132.421 310.032 127.283 309.578C120.794 308.449 113.436 311.452 107.374 307.538C102.402 304.326 101.257 298.022 104.834 293.269C109.743 286.746 120.088 289.917 127.283 288.95Z"/>
	<path fill="red" transform="scale(2 2)" d="M307.611 314.422L227.475 314.438C224.147 314.442 215.694 315.402 212.988 313.24C210.559 311.3 209.936 306.997 212.127 304.648C214.199 302.427 218.785 302.85 221.605 302.793L301.71 302.787C309.409 302.786 316.059 300.409 318.398 308.908C316.713 314.678 313.001 314.456 307.611 314.422Z"/>
	<path fill="white" transform="scale(2 2)" d="M369.102 314.422L396.837 314.409C400.985 314.403 405.175 314.265 409.317 314.422C409.196 327.677 407.105 335.128 393.963 339.389C393.746 335.754 394.934 323.659 392.891 321.39C389.466 317.587 384.321 319.475 383.37 324.114C382.75 327.138 383.234 335.776 383.239 339.389C370.741 335.734 369.016 326.032 369.102 314.422Z"/>
	<path fill="red" transform="scale(2 2)" d="M383.239 339.389C383.234 335.776 382.75 327.138 383.37 324.114C384.321 319.475 389.466 317.587 392.891 321.39C394.934 323.659 393.746 335.754 393.963 339.389L393.963 339.389C392.283 338.918 385.58 339.408 383.239 339.389L383.239 339.389Z"/>
	<path fill="#DEDEDE" transform="scale(2 2)" d="M127.283 330.459C131.945 330.439 144.066 329.838 147.886 330.756C158.284 333.255 157.786 347.95 147.694 350.565C143.442 351.666 129.072 350.251 127.562 351.154C127.21 351.365 127.289 352.582 127.283 353.023C126.669 347.005 115.312 353.987 107.338 348.946C102.424 345.84 101.877 338.831 105.04 334.288C109.628 327.698 120.659 331.797 127.283 330.459Z"/>
	<path fill="red" transform="scale(2 2)" d="M257.083 342.771L228.36 342.768C224.466 342.768 219.875 343.215 216.07 342.753C211.009 342.14 204.56 331.151 221.685 331.154L272.292 331.157L298.859 331.15C303.419 331.13 308.394 330.667 312.894 331.204C319.72 332.018 320.144 341.552 313.483 342.604C309.351 343.257 300.197 342.785 295.63 342.785L257.083 342.771Z"/>
	<path transform="scale(2 2)" d="M383.239 339.389C385.58 339.408 392.283 338.918 393.963 339.389L393.963 347.166C392.095 349.681 388.327 351.891 385.463 349.471C382.884 347.293 383.447 342.447 383.239 339.389Z"/>
</svg>
