<?xml version="1.0" encoding="utf-8" ?>
<svg xmlns="http://www.w3.org/2000/svg" xmlns:xlink="http://www.w3.org/1999/xlink" width="1024" height="1024">
	<path transform="scale(2 2)" d="M133.675 71.6854L135.012 71.6651L392.576 71.6608C411.425 71.6243 423.66 77.9297 423.751 98.514L423.763 406.182C423.769 420.171 422.186 435.309 404.596 438.513C398.919 439.547 392.433 439.02 386.667 439.019L246.625 439.013L136.516 439.064C118.795 439.043 113.15 426.47 113.208 410.747L113.249 398.595C106.047 398.619 98.9616 398.807 93.3582 393.556C85.6641 386.346 84.7867 374.031 92.1606 366.279C98.449 359.668 104.825 360.18 113.249 359.989C113.142 356.763 113.184 353.553 113.249 350.327C106.749 350.343 100.861 350.718 95.2465 346.851C86.7784 341.018 84.2789 328.336 90.335 319.872C97.2159 310.255 103.915 312.977 113.249 311.501L113.249 300.823C105.817 301.169 98.7502 301.279 92.9977 295.618C85.6525 288.389 84.8191 275.88 92.3632 268.49C98.3627 262.614 105.454 263.202 113.249 263.3L113.249 247.377C105.884 248.03 98.0023 247.726 92.4761 242.076C85.2082 234.645 85.4685 222.324 92.9077 215.159C98.7412 209.539 105.703 209.909 113.249 210.004L113.249 198.76C104.952 198.455 98.7695 199.035 92.4683 192.634C85.4019 185.456 85.4276 173.386 92.7806 166.423C98.5263 160.982 105.754 160.618 113.249 160.853L113.249 150.819C105.781 150.733 98.6809 151.003 92.9515 145.388C85.3803 137.969 85.371 125.877 92.8767 118.417C98.8268 112.504 105.385 112.564 113.249 112.599C113.079 94.3253 111.161 75.6795 133.675 71.6854ZM128.74 419.139C130.311 421.466 132.042 423.361 134.944 423.725C137.523 423.412 140.065 423.542 142.648 423.725C141.992 415.38 142.851 406.95 142.648 398.595C138.011 398.692 133.376 398.575 128.74 398.595L128.714 411.501C128.695 414.034 128.494 416.617 128.74 419.139ZM113.249 278.542C110.51 278.532 107.757 278.464 105.021 278.542C101.726 280.288 101.804 284.646 105.757 285.631C107.488 286.062 109.627 285.882 111.418 285.887C112.123 285.847 112.776 285.939 113.375 285.549L113.249 278.542ZM128.74 334.755C132.352 334.783 139.5 335.557 142.648 333.879C146.639 325.363 133.102 327.504 128.74 327.607C128.656 329.988 128.713 332.373 128.74 334.755ZM106.188 383.051C108.557 383.145 110.877 383.182 113.249 383.051L113.249 375.905C111.907 375.904 110.564 375.889 109.223 375.905C99.9536 375.996 101.737 383.024 106.188 383.051ZM109.804 135.819L113.249 135.819L113.249 128.607C110.679 128.17 108.755 128.105 106.188 128.607C101.923 128.827 99.7303 135.344 109.804 135.819ZM142.648 359.989L142.995 359.804C141.996 356.458 142.309 353.726 142.648 350.327C138.016 350.447 133.372 350.354 128.74 350.327L128.74 359.989C133.325 359.967 138.082 359.689 142.648 359.989ZM110.827 334.755C114.972 335.175 113.199 330.833 113.249 327.607C110.497 327.699 107.772 327.685 105.021 327.607C100.294 329.781 101.867 335.174 110.827 334.755ZM109.223 232.006L113.249 232.006L113.249 225.412C111.116 225.4 108.973 225.344 106.842 225.412C100.306 225.713 101.266 233.545 109.223 232.006ZM134.944 375.905L128.74 375.905L128.74 383.051L137.432 383.051C144.94 382.8 147.659 375.688 134.944 375.905Z"/>
	<path fill="#FD0000" transform="scale(2 2)" d="M128.74 112.599C128.76 97.8677 124.171 85.8522 143.67 86.9832L368.266 86.9832L368.266 423.725L141.118 423.761C139.161 423.772 136.869 424.021 134.944 423.725C137.523 423.412 140.065 423.542 142.648 423.725C141.992 415.38 142.851 406.95 142.648 398.595C164.48 393.315 164.127 366.702 142.648 359.989L142.995 359.804C141.996 356.458 142.309 353.726 142.648 350.327C157.811 345.508 164.876 329.242 152.751 317.356C146.114 310.85 137.393 311.468 128.74 311.501C128.405 308.041 128.717 304.31 128.74 300.823C136.308 300.831 144.842 301.99 151.272 297.158C164.669 287.091 158.8 265.407 142.434 263.521L140.531 263.3C136.602 263.249 132.669 263.294 128.74 263.3L128.74 247.377C136.256 247.17 144.448 248.975 151.016 244.319C165.299 234.193 159.196 212.635 140.531 210.004L140.531 198.76C156.623 198.286 164.986 178.266 153.331 166.52C146.589 159.727 137.519 160.829 128.74 160.853L128.74 150.819C134.298 150.84 141.011 151.601 146.322 149.799C156.129 146.47 161.222 135.524 157.86 125.785C155.243 118.205 150.332 115.901 143.67 112.599C138.755 112.314 133.674 112.583 128.74 112.599Z"/>
	<path fill="#F1FFFB" transform="scale(2 2)" d="M128.74 112.599C128.76 97.8677 124.171 85.8522 143.67 86.9832C142.593 91.6799 141.19 108.809 143.67 112.599C138.755 112.314 133.674 112.583 128.74 112.599Z"/>
	<path fill="#F1FFFB" transform="scale(2 2)" d="M128.74 247.377C130.708 247.689 139.303 247.766 141.244 247.377C141.25 251.26 141.754 259.558 140.936 262.972L140.531 263.3C136.602 263.249 132.669 263.294 128.74 263.3L128.74 247.377Z"/>
	<path transform="scale(2 2)" d="M191.27 128.607L318.874 128.603C323.168 128.602 337.541 127.458 340.998 129.827C345.428 132.861 344.162 139.669 344.148 144.248L344.161 188.151C344.174 195.403 346.902 206.262 337.556 207.491L205.381 207.484C184.295 207.511 184.392 210.701 184.39 186.589L184.398 144.35C184.385 137.951 182.606 129.241 191.27 128.607Z"/>
	<path fill="#F1FFFB" transform="scale(2 2)" d="M199.781 143.785L328.791 143.785L328.794 178.943C328.796 182.172 329.256 189.542 328.791 192.138L199.781 192.138L199.781 143.785Z"/>
	<path transform="scale(2 2)" d="M208.041 264.15C213.052 263.772 218.347 264.133 223.394 264.142L299.437 264.164C304.791 264.175 319.392 262.848 323.804 265.334C330.505 269.111 327.971 278.41 320.307 279.704L219.319 279.71C215.329 279.721 211.16 280.046 207.196 279.69C197.121 278.786 198.314 264.692 208.041 264.15Z"/>
	<path transform="scale(2 2)" d="M206.743 232.006L307.445 232.015C312.187 232.014 320.662 230.505 324.652 233.714C330.151 238.136 327.097 246.882 320.307 247.377C313.864 247.669 307.28 247.383 300.82 247.382L223.692 247.366C218.643 247.357 213.401 247.693 208.375 247.428C198.309 246.899 197.17 233.9 206.743 232.006Z"/>
	<path transform="scale(2 2)" d="M205.832 295.959C211.123 295.738 216.51 295.952 221.812 295.953L283.918 295.957C287.408 295.956 297.061 295.378 299.941 296.284C308.045 298.832 306.527 308.258 299.864 311.501C296.431 311.85 292.712 311.531 289.242 311.515L229.876 311.488C224.198 311.486 209.695 312.598 204.686 310.637C197.27 307.734 199.304 298.372 205.832 295.959Z"/>
	<path fill="#F1FFFB" transform="scale(2 2)" d="M383.475 86.9832C390.711 86.9895 407.73 83.8161 408.468 94.9377C408.889 101.283 408.631 107.752 408.629 114.115L408.62 396.135C408.621 403.128 410.495 415.52 405.912 420.77C400.688 425.944 390.271 423.728 383.475 423.725L383.475 86.9832Z"/>
	<path fill="#F1FFFB" transform="scale(2 2)" d="M128.74 198.76L140.531 198.76L140.531 210.004C136.625 209.838 132.653 209.995 128.74 210.004L128.74 198.76Z"/>
	<path fill="#F1FFFB" transform="scale(2 2)" d="M128.74 128.607C132.933 127.937 147.873 126.21 142.015 134.874C139.983 136.595 131.616 135.841 128.74 135.819L128.74 128.607Z"/>
	<path fill="#F1FFFB" transform="scale(2 2)" d="M132.187 176.011C135.425 176.019 146.09 174.968 142.71 181.476C142.033 182.779 141.094 183.261 139.746 183.694C136.1 183.878 132.391 183.719 128.74 183.694C128.794 181.134 128.755 178.571 128.74 176.011L132.187 176.011Z"/>
	<path fill="#F1FFFB" transform="scale(2 2)" d="M128.74 278.542C133.629 278.522 147.994 276.531 141.244 285.887C137.242 286.32 132.788 285.914 128.74 285.887C128.852 283.789 128.275 280.378 128.74 278.542Z"/>
	<path fill="#F1FFFB" transform="scale(2 2)" d="M128.74 225.412C133.098 225.438 146.201 223.01 142.648 231.528C139.935 233.211 131.76 232.459 128.74 232.006L128.74 225.412Z"/>
	<path fill="#F1FFFB" transform="scale(2 2)" d="M106.188 176.011C108.509 175.848 110.918 175.995 113.249 176.011L113.249 183.694L110.827 183.694C108.9 183.609 106.949 183.683 105.021 183.694C102.525 181.181 101.911 177.204 106.188 176.011Z"/>
</svg>
