<svg xmlns="http://www.w3.org/2000/svg" width="1024" height="1024"><path fill="#FFF4BC" d="M236.478 242.238c.524-35.372-10.456-87.827 35.208-98.728 10.074-2.405 56.19-1.607 69.254-.987h384.67l41.814-.044c9.464-.004 22.38-1.267 31.266 1.184 31.996 8.828 30.794 37.854 30.794 63.625l.008 615.546c-.06 39.808-23.732 49.688-59.6 49.698l-25.87-.092c-6.126-.048-12.294-.312-18.412.048H320.928l-26.358.076c-47.506.132-58.174-21.96-58.134-65.862l.042-32.71c-13.64-.292-27.33-.03-40.974 0v-33.5c13.652.03 27.324.202 40.974 0v-65.088c-4.306-.866-10.038-.13-14.524-.08l-26.45.08c.695-10.964.02-22.434 0-33.448 9.002.82 32.946.96 40.974 0-.204-3.526-.546-7.092 0-10.6V600.12c-1.178-6.976-.016-15.404 0-22.57h-40.974c-.024-11.338.235-22.694 0-34.03h40.974c.09-12.044-1.16-24.532 0-36.498v-4.768c-.954-7.022-.198-15.634 0-22.754h-40.974v-33.346c13.408.348 27.624.88 40.974 0-.45-5.52-.554-10.834 0-16.352v-48.874c-7.384-.952-33.064-.644-40.974 0V346.94c13.602-.036 27.404.668 40.974 0-.604-7.248-.52-14.402 0-21.65v-42.776c-3.808-.846-9.29-.104-13.322-.072l-27.652.072c.027-11.126.167-22.266 0-33.392 13.34.646 27.688.802 40.974 0a46.5 46.5 0 0 1 0-6.884"/><path fill="#FFF4BC" d="m725.61 142.523 41.814-.044c9.464-.004 22.38-1.267 31.266 1.184 31.996 8.828 30.794 37.854 30.794 63.625l.008 615.546c-.06 39.808-23.732 49.688-59.6 49.698l-25.87-.092c-6.126-.048-12.294-.312-18.412.048h-60.656V142.523z"/><path fill="#F7CFB6" d="M664.954 142.523h60.656c-.548 11.688-.01 23.613-.006 35.324l.002 649.525c0 14.996-.444 30.138.004 45.116h-60.656z"/><path fill="#F7CFB6" d="M236.478 242.238c.524-35.372-10.456-87.827 35.208-98.728 10.074-2.405 56.19-1.607 69.254-.987v729.965c-6.704-.34-13.308-.546-20.012 0l-26.358.076c-47.506.132-58.174-21.96-58.134-65.862l.042-32.71c-13.64-.292-27.33-.03-40.974 0v-33.5c13.652.03 27.324.202 40.974 0v-65.088c-4.306-.866-10.038-.13-14.524-.08l-26.45.08c.695-10.964.02-22.434 0-33.448 9.002.82 32.946.96 40.974 0-.204-3.526-.546-7.092 0-10.6V600.12c-1.178-6.976-.016-15.404 0-22.57h-40.974c-.024-11.338.235-22.694 0-34.03h40.974c.09-12.044-1.16-24.532 0-36.498v-4.768c-.954-7.022-.198-15.634 0-22.754h-40.974v-33.346c13.408.348 27.624.88 40.974 0-.45-5.52-.554-10.834 0-16.352v-48.874c-7.384-.952-33.064-.644-40.974 0V346.94c13.602-.036 27.404.668 40.974 0-.604-7.248-.52-14.402 0-21.65v-42.776c-3.808-.846-9.29-.104-13.322-.072l-27.652.072c.027-11.126.167-22.266 0-33.392 13.34.646 27.688.802 40.974 0a46.5 46.5 0 0 1 0-6.884"/><path fill="#E3BDA7" d="M236.478 507.022c.2 12.156.03 24.338 0 36.498 10.25-.032 30.99-1.328 40.222.908 16.438 3.982 15.882 30.666-1.334 33.396-3.816.606-34.564.28-38.888-.274.016 7.496.296 15.088 0 22.57-1.178-6.976-.016-15.404 0-22.57h-40.974c-.024-11.338.235-22.694 0-34.03h40.974c.09-12.044-1.16-24.532 0-36.498"/><path fill="#E3BDA7" d="M236.478 346.94c-.604-7.248-.52-14.402 0-21.65.092 7.216.034 14.434 0 21.65 8.668-.024 33.416-1.168 40.288.436 12.744 2.972 16.792 20.436 7.372 29.094-6.3 5.79-38.774 5.896-47.66 4.458-7.384-.952-33.064-.644-40.974 0V346.94c13.602-.036 27.404.668 40.974 0"/><path fill="#E3BDA7" d="M236.478 740.492c11.284-.466 40.524-2.19 47.822 4.444 6.49 5.898 7.262 18.412.812 24.642-6.43 6.214-38.562 5.398-48.634 4.414-13.64-.292-27.33-.03-40.974 0v-33.5c13.652.03 27.324.202 40.974 0"/><path fill="#E3BDA7" d="M236.478 249.122a46.5 46.5 0 0 1 0-6.884zc9.484-.032 32.758-1.182 40.614.678 12.678 3 15.926 20.54 6.546 28.83-5.446 4.812-39.612 5.546-47.16 3.884-3.808-.846-9.29-.104-13.322-.072l-27.652.072c.027-11.126.167-22.266 0-33.392 13.34.646 27.688.802 40.974 0"/><path fill="#E3BDA7" d="M236.478 446.154c-.45-5.52-.554-10.834 0-16.352.068 5.452.04 10.9 0 16.352 12.192-.006 39.612-3.058 47.326 4.742 9.268 9.368 4.874 24.756-7.644 27.714-9.056 2.14-29.338.93-39.682.89.02 7.518.44 15.262 0 22.754-.954-7.022-.198-15.634 0-22.754h-40.974v-33.346c13.408.348 27.624.88 40.974 0"/><path fill="#E3BDA7" d="M236.478 641.956c-.204-3.526-.546-7.092 0-10.6.03 3.536.046 7.066 0 10.6 9.406-.014 33.728-1.236 41.392.738 16.086 4.142 14.82 28.826-1.294 32.232-5.428 1.148-33.926 1.034-40.098.478-4.306-.866-10.038-.13-14.524-.08l-26.45.08c.695-10.964.02-22.434 0-33.448 9.002.82 32.946.96 40.974 0"/><path fill="#F7CFB6" d="M414 382.532h197.072c-.034 11.096.586 22.396 0 33.462H414z"/><path fill="#F7CFB6" d="M414 318.49h197.072c-.052 10.91.676 22.048 0 32.92H414z"/></svg>